<mxfile host="app.diagrams.net" agent="Mozilla/5.0 (Windows NT 10.0; Win64; x64) AppleWebKit/537.36 (KHTML, like Gecko) Chrome/129.0.0.0 Safari/537.36" version="24.7.16">
  <diagram name="Страница — 1" id="hgkMthfuOUoYbkFymvBo">
    <mxGraphModel dx="1590" dy="1087" grid="1" gridSize="10" guides="1" tooltips="1" connect="1" arrows="1" fold="1" page="0" pageScale="1" pageWidth="827" pageHeight="1169" math="0" shadow="0">
      <root>
        <mxCell id="0" />
        <mxCell id="1" parent="0" />
        <mxCell id="C4me2KuEJBU7en0Y0sO0-1" value="&lt;font style=&quot;font-size: 24px;&quot;&gt;1&lt;/font&gt;" style="text;html=1;align=center;verticalAlign=middle;whiteSpace=wrap;rounded=0;strokeWidth=1;" vertex="1" parent="1">
          <mxGeometry x="190" y="210" width="60" height="30" as="geometry" />
        </mxCell>
        <mxCell id="C4me2KuEJBU7en0Y0sO0-2" value="&lt;font style=&quot;font-size: 24px;&quot;&gt;1&lt;/font&gt;" style="text;html=1;align=center;verticalAlign=middle;whiteSpace=wrap;rounded=0;fontSize=18;strokeWidth=1;" vertex="1" parent="1">
          <mxGeometry x="230" y="210" width="60" height="30" as="geometry" />
        </mxCell>
        <mxCell id="C4me2KuEJBU7en0Y0sO0-3" value="&lt;font style=&quot;font-size: 24px;&quot;&gt;0&lt;/font&gt;" style="text;html=1;align=center;verticalAlign=middle;whiteSpace=wrap;rounded=0;strokeWidth=1;" vertex="1" parent="1">
          <mxGeometry x="270" y="210" width="60" height="30" as="geometry" />
        </mxCell>
        <mxCell id="C4me2KuEJBU7en0Y0sO0-4" value="&lt;font style=&quot;font-size: 24px;&quot;&gt;0&lt;/font&gt;" style="text;html=1;align=center;verticalAlign=middle;whiteSpace=wrap;rounded=0;strokeWidth=1;" vertex="1" parent="1">
          <mxGeometry x="310" y="210" width="60" height="30" as="geometry" />
        </mxCell>
        <mxCell id="C4me2KuEJBU7en0Y0sO0-5" value="&lt;font style=&quot;font-size: 24px;&quot;&gt;0&lt;/font&gt;" style="text;html=1;align=center;verticalAlign=middle;whiteSpace=wrap;rounded=0;strokeWidth=1;" vertex="1" parent="1">
          <mxGeometry x="350" y="210" width="60" height="30" as="geometry" />
        </mxCell>
        <mxCell id="C4me2KuEJBU7en0Y0sO0-6" value="&lt;span style=&quot;font-size: 24px;&quot;&gt;0&lt;/span&gt;" style="text;html=1;align=center;verticalAlign=middle;whiteSpace=wrap;rounded=0;strokeWidth=1;" vertex="1" parent="1">
          <mxGeometry x="390" y="210" width="60" height="30" as="geometry" />
        </mxCell>
        <mxCell id="C4me2KuEJBU7en0Y0sO0-7" value="&lt;span style=&quot;font-size: 24px;&quot;&gt;0&lt;/span&gt;" style="text;html=1;align=center;verticalAlign=middle;whiteSpace=wrap;rounded=0;strokeWidth=1;" vertex="1" parent="1">
          <mxGeometry x="430" y="210" width="60" height="30" as="geometry" />
        </mxCell>
        <mxCell id="C4me2KuEJBU7en0Y0sO0-8" value="&lt;span style=&quot;font-size: 24px;&quot;&gt;1&lt;/span&gt;" style="text;html=1;align=center;verticalAlign=middle;whiteSpace=wrap;rounded=0;strokeWidth=1;" vertex="1" parent="1">
          <mxGeometry x="470" y="210" width="60" height="30" as="geometry" />
        </mxCell>
        <mxCell id="C4me2KuEJBU7en0Y0sO0-9" value="&lt;span style=&quot;font-size: 24px;&quot;&gt;1&lt;/span&gt;" style="text;html=1;align=center;verticalAlign=middle;whiteSpace=wrap;rounded=0;strokeWidth=1;" vertex="1" parent="1">
          <mxGeometry x="510" y="210" width="60" height="30" as="geometry" />
        </mxCell>
        <mxCell id="C4me2KuEJBU7en0Y0sO0-10" value="&lt;font style=&quot;font-size: 24px;&quot;&gt;1&lt;/font&gt;" style="text;html=1;align=center;verticalAlign=middle;whiteSpace=wrap;rounded=0;strokeWidth=1;" vertex="1" parent="1">
          <mxGeometry x="550" y="210" width="60" height="30" as="geometry" />
        </mxCell>
        <mxCell id="C4me2KuEJBU7en0Y0sO0-11" value="&lt;span style=&quot;font-size: 24px;&quot;&gt;1&lt;/span&gt;" style="text;html=1;align=center;verticalAlign=middle;whiteSpace=wrap;rounded=0;strokeWidth=1;" vertex="1" parent="1">
          <mxGeometry x="590" y="210" width="60" height="30" as="geometry" />
        </mxCell>
        <mxCell id="C4me2KuEJBU7en0Y0sO0-12" value="&lt;span style=&quot;font-size: 24px;&quot;&gt;0&lt;/span&gt;" style="text;html=1;align=center;verticalAlign=middle;whiteSpace=wrap;rounded=0;strokeWidth=1;" vertex="1" parent="1">
          <mxGeometry x="630" y="210" width="60" height="30" as="geometry" />
        </mxCell>
        <mxCell id="C4me2KuEJBU7en0Y0sO0-13" value="&lt;span style=&quot;font-size: 24px;&quot;&gt;0&lt;/span&gt;" style="text;html=1;align=center;verticalAlign=middle;whiteSpace=wrap;rounded=0;strokeWidth=1;" vertex="1" parent="1">
          <mxGeometry x="670" y="210" width="60" height="30" as="geometry" />
        </mxCell>
        <mxCell id="C4me2KuEJBU7en0Y0sO0-14" value="&lt;span style=&quot;font-size: 24px;&quot;&gt;0&lt;/span&gt;" style="text;html=1;align=center;verticalAlign=middle;whiteSpace=wrap;rounded=0;strokeWidth=1;" vertex="1" parent="1">
          <mxGeometry x="710" y="210" width="60" height="30" as="geometry" />
        </mxCell>
        <mxCell id="C4me2KuEJBU7en0Y0sO0-15" value="&lt;span style=&quot;font-size: 24px;&quot;&gt;0&lt;/span&gt;" style="text;html=1;align=center;verticalAlign=middle;whiteSpace=wrap;rounded=0;strokeWidth=1;" vertex="1" parent="1">
          <mxGeometry x="750" y="210" width="60" height="30" as="geometry" />
        </mxCell>
        <mxCell id="C4me2KuEJBU7en0Y0sO0-16" value="&lt;span style=&quot;font-size: 24px;&quot;&gt;0&lt;/span&gt;" style="text;html=1;align=center;verticalAlign=middle;whiteSpace=wrap;rounded=0;strokeWidth=1;" vertex="1" parent="1">
          <mxGeometry x="790" y="210" width="60" height="30" as="geometry" />
        </mxCell>
        <mxCell id="C4me2KuEJBU7en0Y0sO0-17" value="&lt;font style=&quot;font-size: 24px;&quot;&gt;1&lt;/font&gt;" style="text;html=1;align=center;verticalAlign=middle;whiteSpace=wrap;rounded=0;strokeWidth=1;" vertex="1" parent="1">
          <mxGeometry x="827" y="210" width="60" height="30" as="geometry" />
        </mxCell>
        <mxCell id="C4me2KuEJBU7en0Y0sO0-18" value="&lt;span style=&quot;font-size: 24px;&quot;&gt;1&lt;/span&gt;" style="text;html=1;align=center;verticalAlign=middle;whiteSpace=wrap;rounded=0;strokeWidth=1;" vertex="1" parent="1">
          <mxGeometry x="870" y="210" width="60" height="30" as="geometry" />
        </mxCell>
        <mxCell id="C4me2KuEJBU7en0Y0sO0-19" value="&lt;font style=&quot;font-size: 24px;&quot;&gt;0&lt;/font&gt;" style="text;html=1;align=center;verticalAlign=middle;whiteSpace=wrap;rounded=0;strokeWidth=1;" vertex="1" parent="1">
          <mxGeometry x="910" y="210" width="60" height="30" as="geometry" />
        </mxCell>
        <mxCell id="C4me2KuEJBU7en0Y0sO0-20" value="&lt;span style=&quot;font-size: 24px;&quot;&gt;1&lt;/span&gt;" style="text;html=1;align=center;verticalAlign=middle;whiteSpace=wrap;rounded=0;strokeWidth=1;" vertex="1" parent="1">
          <mxGeometry x="950" y="210" width="60" height="30" as="geometry" />
        </mxCell>
        <mxCell id="C4me2KuEJBU7en0Y0sO0-21" value="&lt;span style=&quot;font-size: 24px;&quot;&gt;0&lt;/span&gt;" style="text;html=1;align=center;verticalAlign=middle;whiteSpace=wrap;rounded=0;strokeWidth=1;" vertex="1" parent="1">
          <mxGeometry x="990" y="210" width="60" height="30" as="geometry" />
        </mxCell>
        <mxCell id="C4me2KuEJBU7en0Y0sO0-22" value="&lt;span style=&quot;font-size: 24px;&quot;&gt;0&lt;/span&gt;" style="text;html=1;align=center;verticalAlign=middle;whiteSpace=wrap;rounded=0;strokeWidth=1;" vertex="1" parent="1">
          <mxGeometry x="1030" y="210" width="60" height="30" as="geometry" />
        </mxCell>
        <mxCell id="C4me2KuEJBU7en0Y0sO0-23" value="&lt;span style=&quot;font-size: 24px;&quot;&gt;0&lt;/span&gt;" style="text;html=1;align=center;verticalAlign=middle;whiteSpace=wrap;rounded=0;strokeWidth=1;" vertex="1" parent="1">
          <mxGeometry x="1070" y="210" width="60" height="30" as="geometry" />
        </mxCell>
        <mxCell id="C4me2KuEJBU7en0Y0sO0-24" value="&lt;span style=&quot;font-size: 24px;&quot;&gt;0&lt;/span&gt;" style="text;html=1;align=center;verticalAlign=middle;whiteSpace=wrap;rounded=0;strokeWidth=1;" vertex="1" parent="1">
          <mxGeometry x="1110" y="210" width="60" height="30" as="geometry" />
        </mxCell>
        <mxCell id="C4me2KuEJBU7en0Y0sO0-25" value="&lt;span style=&quot;font-size: 24px;&quot;&gt;0&lt;/span&gt;" style="text;html=1;align=center;verticalAlign=middle;whiteSpace=wrap;rounded=0;strokeWidth=1;" vertex="1" parent="1">
          <mxGeometry x="1270" y="210" width="60" height="30" as="geometry" />
        </mxCell>
        <mxCell id="C4me2KuEJBU7en0Y0sO0-26" value="&lt;span style=&quot;font-size: 24px;&quot;&gt;0&lt;/span&gt;" style="text;html=1;align=center;verticalAlign=middle;whiteSpace=wrap;rounded=0;strokeWidth=1;" vertex="1" parent="1">
          <mxGeometry x="1230" y="210" width="60" height="30" as="geometry" />
        </mxCell>
        <mxCell id="C4me2KuEJBU7en0Y0sO0-27" value="&lt;font style=&quot;font-size: 24px;&quot;&gt;1&lt;/font&gt;" style="text;html=1;align=center;verticalAlign=middle;whiteSpace=wrap;rounded=0;strokeWidth=1;" vertex="1" parent="1">
          <mxGeometry x="1150" y="210" width="60" height="30" as="geometry" />
        </mxCell>
        <mxCell id="C4me2KuEJBU7en0Y0sO0-28" value="&lt;span style=&quot;font-size: 24px;&quot;&gt;1&lt;/span&gt;" style="text;html=1;align=center;verticalAlign=middle;whiteSpace=wrap;rounded=0;strokeWidth=1;" vertex="1" parent="1">
          <mxGeometry x="1190" y="210" width="60" height="30" as="geometry" />
        </mxCell>
        <mxCell id="C4me2KuEJBU7en0Y0sO0-29" value="&lt;span style=&quot;font-size: 24px;&quot;&gt;0&lt;/span&gt;" style="text;html=1;align=center;verticalAlign=middle;whiteSpace=wrap;rounded=0;strokeWidth=1;" vertex="1" parent="1">
          <mxGeometry x="1310" y="210" width="60" height="30" as="geometry" />
        </mxCell>
        <mxCell id="C4me2KuEJBU7en0Y0sO0-30" value="&lt;span style=&quot;font-size: 24px;&quot;&gt;1&lt;/span&gt;" style="text;html=1;align=center;verticalAlign=middle;whiteSpace=wrap;rounded=0;strokeWidth=1;" vertex="1" parent="1">
          <mxGeometry x="1350" y="210" width="60" height="30" as="geometry" />
        </mxCell>
        <mxCell id="C4me2KuEJBU7en0Y0sO0-31" value="&lt;span style=&quot;font-size: 24px;&quot;&gt;0&lt;/span&gt;" style="text;html=1;align=center;verticalAlign=middle;whiteSpace=wrap;rounded=0;strokeWidth=1;" vertex="1" parent="1">
          <mxGeometry x="1390" y="210" width="60" height="30" as="geometry" />
        </mxCell>
        <mxCell id="C4me2KuEJBU7en0Y0sO0-32" value="&lt;span style=&quot;font-size: 24px;&quot;&gt;0&lt;/span&gt;" style="text;html=1;align=center;verticalAlign=middle;whiteSpace=wrap;rounded=0;strokeWidth=1;" vertex="1" parent="1">
          <mxGeometry x="1430" y="210" width="60" height="30" as="geometry" />
        </mxCell>
        <mxCell id="C4me2KuEJBU7en0Y0sO0-34" value="" style="endArrow=none;html=1;rounded=0;strokeWidth=1;" edge="1" parent="1">
          <mxGeometry width="50" height="50" relative="1" as="geometry">
            <mxPoint x="200" y="280" as="sourcePoint" />
            <mxPoint x="220" y="280" as="targetPoint" />
          </mxGeometry>
        </mxCell>
        <mxCell id="C4me2KuEJBU7en0Y0sO0-35" value="" style="endArrow=none;html=1;rounded=0;strokeWidth=1;" edge="1" parent="1">
          <mxGeometry width="50" height="50" relative="1" as="geometry">
            <mxPoint x="220" y="280" as="sourcePoint" />
            <mxPoint x="220" y="360" as="targetPoint" />
          </mxGeometry>
        </mxCell>
        <mxCell id="C4me2KuEJBU7en0Y0sO0-36" value="" style="endArrow=none;html=1;rounded=0;strokeWidth=1;" edge="1" parent="1">
          <mxGeometry width="50" height="50" relative="1" as="geometry">
            <mxPoint x="220" y="360" as="sourcePoint" />
            <mxPoint x="240" y="360" as="targetPoint" />
          </mxGeometry>
        </mxCell>
        <mxCell id="C4me2KuEJBU7en0Y0sO0-37" value="" style="endArrow=none;html=1;rounded=0;strokeWidth=1;" edge="1" parent="1">
          <mxGeometry width="50" height="50" relative="1" as="geometry">
            <mxPoint x="240" y="360" as="sourcePoint" />
            <mxPoint x="240" y="280" as="targetPoint" />
          </mxGeometry>
        </mxCell>
        <mxCell id="C4me2KuEJBU7en0Y0sO0-38" value="" style="endArrow=none;html=1;rounded=0;strokeWidth=1;" edge="1" parent="1">
          <mxGeometry width="50" height="50" relative="1" as="geometry">
            <mxPoint x="240" y="280" as="sourcePoint" />
            <mxPoint x="260" y="280" as="targetPoint" />
          </mxGeometry>
        </mxCell>
        <mxCell id="C4me2KuEJBU7en0Y0sO0-39" value="" style="endArrow=none;html=1;rounded=0;strokeWidth=1;" edge="1" parent="1">
          <mxGeometry width="50" height="50" relative="1" as="geometry">
            <mxPoint x="260" y="280" as="sourcePoint" />
            <mxPoint x="260" y="360" as="targetPoint" />
          </mxGeometry>
        </mxCell>
        <mxCell id="C4me2KuEJBU7en0Y0sO0-40" value="" style="endArrow=none;html=1;rounded=0;strokeWidth=1;" edge="1" parent="1">
          <mxGeometry width="50" height="50" relative="1" as="geometry">
            <mxPoint x="260" y="360" as="sourcePoint" />
            <mxPoint x="300" y="360" as="targetPoint" />
          </mxGeometry>
        </mxCell>
        <mxCell id="C4me2KuEJBU7en0Y0sO0-41" value="" style="endArrow=none;html=1;rounded=0;strokeWidth=1;" edge="1" parent="1">
          <mxGeometry width="50" height="50" relative="1" as="geometry">
            <mxPoint x="300" y="360" as="sourcePoint" />
            <mxPoint x="300" y="280" as="targetPoint" />
          </mxGeometry>
        </mxCell>
        <mxCell id="C4me2KuEJBU7en0Y0sO0-42" value="" style="endArrow=none;html=1;rounded=0;strokeWidth=1;" edge="1" parent="1">
          <mxGeometry width="50" height="50" relative="1" as="geometry">
            <mxPoint x="300" y="280" as="sourcePoint" />
            <mxPoint x="320" y="280" as="targetPoint" />
          </mxGeometry>
        </mxCell>
        <mxCell id="C4me2KuEJBU7en0Y0sO0-43" value="" style="endArrow=none;html=1;rounded=0;strokeWidth=1;" edge="1" parent="1">
          <mxGeometry width="50" height="50" relative="1" as="geometry">
            <mxPoint x="320" y="280" as="sourcePoint" />
            <mxPoint x="320" y="360" as="targetPoint" />
          </mxGeometry>
        </mxCell>
        <mxCell id="C4me2KuEJBU7en0Y0sO0-44" value="" style="endArrow=none;html=1;rounded=0;strokeWidth=1;" edge="1" parent="1">
          <mxGeometry width="50" height="50" relative="1" as="geometry">
            <mxPoint x="320" y="360" as="sourcePoint" />
            <mxPoint x="340" y="360" as="targetPoint" />
          </mxGeometry>
        </mxCell>
        <mxCell id="C4me2KuEJBU7en0Y0sO0-45" value="" style="endArrow=none;html=1;rounded=0;strokeWidth=1;" edge="1" parent="1">
          <mxGeometry width="50" height="50" relative="1" as="geometry">
            <mxPoint x="340" y="360" as="sourcePoint" />
            <mxPoint x="340" y="280" as="targetPoint" />
          </mxGeometry>
        </mxCell>
        <mxCell id="C4me2KuEJBU7en0Y0sO0-46" value="" style="endArrow=none;html=1;rounded=0;strokeWidth=1;" edge="1" parent="1">
          <mxGeometry width="50" height="50" relative="1" as="geometry">
            <mxPoint x="340" y="280" as="sourcePoint" />
            <mxPoint x="360" y="280" as="targetPoint" />
          </mxGeometry>
        </mxCell>
        <mxCell id="C4me2KuEJBU7en0Y0sO0-47" value="" style="endArrow=none;html=1;rounded=0;strokeWidth=1;" edge="1" parent="1">
          <mxGeometry width="50" height="50" relative="1" as="geometry">
            <mxPoint x="360" y="280" as="sourcePoint" />
            <mxPoint x="360" y="360" as="targetPoint" />
          </mxGeometry>
        </mxCell>
        <mxCell id="C4me2KuEJBU7en0Y0sO0-48" value="" style="endArrow=none;html=1;rounded=0;strokeWidth=1;" edge="1" parent="1">
          <mxGeometry width="50" height="50" relative="1" as="geometry">
            <mxPoint x="360" y="360" as="sourcePoint" />
            <mxPoint x="380" y="360" as="targetPoint" />
          </mxGeometry>
        </mxCell>
        <mxCell id="C4me2KuEJBU7en0Y0sO0-49" value="" style="endArrow=none;html=1;rounded=0;strokeWidth=1;" edge="1" parent="1">
          <mxGeometry width="50" height="50" relative="1" as="geometry">
            <mxPoint x="380" y="360" as="sourcePoint" />
            <mxPoint x="380" y="280" as="targetPoint" />
          </mxGeometry>
        </mxCell>
        <mxCell id="C4me2KuEJBU7en0Y0sO0-50" value="" style="endArrow=none;html=1;rounded=0;strokeWidth=1;" edge="1" parent="1">
          <mxGeometry width="50" height="50" relative="1" as="geometry">
            <mxPoint x="380" y="280" as="sourcePoint" />
            <mxPoint x="400" y="280" as="targetPoint" />
          </mxGeometry>
        </mxCell>
        <mxCell id="C4me2KuEJBU7en0Y0sO0-51" value="" style="endArrow=none;html=1;rounded=0;strokeWidth=1;" edge="1" parent="1">
          <mxGeometry width="50" height="50" relative="1" as="geometry">
            <mxPoint x="400" y="280" as="sourcePoint" />
            <mxPoint x="400" y="360" as="targetPoint" />
          </mxGeometry>
        </mxCell>
        <mxCell id="C4me2KuEJBU7en0Y0sO0-52" value="" style="endArrow=none;html=1;rounded=0;strokeWidth=1;" edge="1" parent="1">
          <mxGeometry width="50" height="50" relative="1" as="geometry">
            <mxPoint x="400" y="360" as="sourcePoint" />
            <mxPoint x="420" y="360" as="targetPoint" />
          </mxGeometry>
        </mxCell>
        <mxCell id="C4me2KuEJBU7en0Y0sO0-53" value="" style="endArrow=none;html=1;rounded=0;strokeWidth=1;" edge="1" parent="1">
          <mxGeometry width="50" height="50" relative="1" as="geometry">
            <mxPoint x="420" y="360" as="sourcePoint" />
            <mxPoint x="420" y="280" as="targetPoint" />
          </mxGeometry>
        </mxCell>
        <mxCell id="C4me2KuEJBU7en0Y0sO0-54" value="" style="endArrow=none;html=1;rounded=0;strokeWidth=1;" edge="1" parent="1">
          <mxGeometry width="50" height="50" relative="1" as="geometry">
            <mxPoint x="420" y="280" as="sourcePoint" />
            <mxPoint x="440" y="280" as="targetPoint" />
          </mxGeometry>
        </mxCell>
        <mxCell id="C4me2KuEJBU7en0Y0sO0-55" value="" style="endArrow=none;html=1;rounded=0;strokeWidth=1;" edge="1" parent="1">
          <mxGeometry width="50" height="50" relative="1" as="geometry">
            <mxPoint x="440" y="280" as="sourcePoint" />
            <mxPoint x="440" y="360" as="targetPoint" />
          </mxGeometry>
        </mxCell>
        <mxCell id="C4me2KuEJBU7en0Y0sO0-56" value="" style="endArrow=none;html=1;rounded=0;strokeWidth=1;" edge="1" parent="1">
          <mxGeometry width="50" height="50" relative="1" as="geometry">
            <mxPoint x="440" y="360" as="sourcePoint" />
            <mxPoint x="460" y="360" as="targetPoint" />
          </mxGeometry>
        </mxCell>
        <mxCell id="C4me2KuEJBU7en0Y0sO0-57" value="" style="endArrow=none;html=1;rounded=0;strokeWidth=1;" edge="1" parent="1">
          <mxGeometry width="50" height="50" relative="1" as="geometry">
            <mxPoint x="460" y="360" as="sourcePoint" />
            <mxPoint x="460" y="280" as="targetPoint" />
          </mxGeometry>
        </mxCell>
        <mxCell id="C4me2KuEJBU7en0Y0sO0-58" value="" style="endArrow=none;html=1;rounded=0;strokeWidth=1;" edge="1" parent="1">
          <mxGeometry width="50" height="50" relative="1" as="geometry">
            <mxPoint x="460" y="280" as="sourcePoint" />
            <mxPoint x="500" y="280" as="targetPoint" />
          </mxGeometry>
        </mxCell>
        <mxCell id="C4me2KuEJBU7en0Y0sO0-59" value="" style="endArrow=none;html=1;rounded=0;strokeWidth=1;" edge="1" parent="1">
          <mxGeometry width="50" height="50" relative="1" as="geometry">
            <mxPoint x="500" y="280" as="sourcePoint" />
            <mxPoint x="500" y="360" as="targetPoint" />
          </mxGeometry>
        </mxCell>
        <mxCell id="C4me2KuEJBU7en0Y0sO0-60" value="" style="endArrow=none;html=1;rounded=0;strokeWidth=1;" edge="1" parent="1">
          <mxGeometry width="50" height="50" relative="1" as="geometry">
            <mxPoint x="500" y="360" as="sourcePoint" />
            <mxPoint x="520" y="360" as="targetPoint" />
          </mxGeometry>
        </mxCell>
        <mxCell id="C4me2KuEJBU7en0Y0sO0-61" value="" style="endArrow=none;html=1;rounded=0;strokeWidth=1;" edge="1" parent="1">
          <mxGeometry width="50" height="50" relative="1" as="geometry">
            <mxPoint x="520" y="360" as="sourcePoint" />
            <mxPoint x="520" y="280" as="targetPoint" />
          </mxGeometry>
        </mxCell>
        <mxCell id="C4me2KuEJBU7en0Y0sO0-62" value="" style="endArrow=none;html=1;rounded=0;strokeWidth=1;" edge="1" parent="1">
          <mxGeometry width="50" height="50" relative="1" as="geometry">
            <mxPoint x="540" y="280" as="sourcePoint" />
            <mxPoint x="520" y="280" as="targetPoint" />
          </mxGeometry>
        </mxCell>
        <mxCell id="C4me2KuEJBU7en0Y0sO0-63" value="" style="endArrow=none;html=1;rounded=0;strokeWidth=1;" edge="1" parent="1">
          <mxGeometry width="50" height="50" relative="1" as="geometry">
            <mxPoint x="540" y="360" as="sourcePoint" />
            <mxPoint x="540" y="280" as="targetPoint" />
          </mxGeometry>
        </mxCell>
        <mxCell id="C4me2KuEJBU7en0Y0sO0-64" value="" style="endArrow=none;html=1;rounded=0;strokeWidth=1;" edge="1" parent="1">
          <mxGeometry width="50" height="50" relative="1" as="geometry">
            <mxPoint x="560" y="360" as="sourcePoint" />
            <mxPoint x="540" y="360" as="targetPoint" />
          </mxGeometry>
        </mxCell>
        <mxCell id="C4me2KuEJBU7en0Y0sO0-65" value="" style="endArrow=none;html=1;rounded=0;strokeWidth=1;" edge="1" parent="1">
          <mxGeometry width="50" height="50" relative="1" as="geometry">
            <mxPoint x="560" y="360" as="sourcePoint" />
            <mxPoint x="560" y="280" as="targetPoint" />
          </mxGeometry>
        </mxCell>
        <mxCell id="C4me2KuEJBU7en0Y0sO0-66" value="" style="endArrow=none;html=1;rounded=0;strokeWidth=1;" edge="1" parent="1">
          <mxGeometry width="50" height="50" relative="1" as="geometry">
            <mxPoint x="580" y="280" as="sourcePoint" />
            <mxPoint x="560" y="280" as="targetPoint" />
          </mxGeometry>
        </mxCell>
        <mxCell id="C4me2KuEJBU7en0Y0sO0-67" value="" style="endArrow=none;html=1;rounded=0;strokeWidth=1;" edge="1" parent="1">
          <mxGeometry width="50" height="50" relative="1" as="geometry">
            <mxPoint x="580" y="360" as="sourcePoint" />
            <mxPoint x="580" y="280" as="targetPoint" />
          </mxGeometry>
        </mxCell>
        <mxCell id="C4me2KuEJBU7en0Y0sO0-68" value="" style="endArrow=none;html=1;rounded=0;strokeWidth=1;" edge="1" parent="1">
          <mxGeometry width="50" height="50" relative="1" as="geometry">
            <mxPoint x="580" y="360" as="sourcePoint" />
            <mxPoint x="600" y="360" as="targetPoint" />
          </mxGeometry>
        </mxCell>
        <mxCell id="C4me2KuEJBU7en0Y0sO0-69" value="" style="endArrow=none;html=1;rounded=0;strokeWidth=1;" edge="1" parent="1">
          <mxGeometry width="50" height="50" relative="1" as="geometry">
            <mxPoint x="600" y="360" as="sourcePoint" />
            <mxPoint x="600" y="280" as="targetPoint" />
          </mxGeometry>
        </mxCell>
        <mxCell id="C4me2KuEJBU7en0Y0sO0-70" value="" style="endArrow=none;html=1;rounded=0;strokeWidth=1;" edge="1" parent="1">
          <mxGeometry width="50" height="50" relative="1" as="geometry">
            <mxPoint x="600" y="280" as="sourcePoint" />
            <mxPoint x="620" y="280" as="targetPoint" />
          </mxGeometry>
        </mxCell>
        <mxCell id="C4me2KuEJBU7en0Y0sO0-71" value="" style="endArrow=none;html=1;rounded=0;strokeWidth=1;" edge="1" parent="1">
          <mxGeometry width="50" height="50" relative="1" as="geometry">
            <mxPoint x="620" y="360" as="sourcePoint" />
            <mxPoint x="620" y="280" as="targetPoint" />
          </mxGeometry>
        </mxCell>
        <mxCell id="C4me2KuEJBU7en0Y0sO0-72" value="" style="endArrow=none;html=1;rounded=0;strokeWidth=1;" edge="1" parent="1">
          <mxGeometry width="50" height="50" relative="1" as="geometry">
            <mxPoint x="620" y="360" as="sourcePoint" />
            <mxPoint x="660" y="360" as="targetPoint" />
          </mxGeometry>
        </mxCell>
        <mxCell id="C4me2KuEJBU7en0Y0sO0-73" value="" style="endArrow=none;html=1;rounded=0;strokeWidth=1;" edge="1" parent="1">
          <mxGeometry width="50" height="50" relative="1" as="geometry">
            <mxPoint x="660" y="360" as="sourcePoint" />
            <mxPoint x="660" y="280" as="targetPoint" />
          </mxGeometry>
        </mxCell>
        <mxCell id="C4me2KuEJBU7en0Y0sO0-74" value="" style="endArrow=none;html=1;rounded=0;strokeWidth=1;" edge="1" parent="1">
          <mxGeometry width="50" height="50" relative="1" as="geometry">
            <mxPoint x="660" y="280" as="sourcePoint" />
            <mxPoint x="680" y="280" as="targetPoint" />
          </mxGeometry>
        </mxCell>
        <mxCell id="C4me2KuEJBU7en0Y0sO0-75" value="" style="endArrow=none;html=1;rounded=0;strokeWidth=1;" edge="1" parent="1">
          <mxGeometry width="50" height="50" relative="1" as="geometry">
            <mxPoint x="680" y="360" as="sourcePoint" />
            <mxPoint x="680" y="280" as="targetPoint" />
          </mxGeometry>
        </mxCell>
        <mxCell id="C4me2KuEJBU7en0Y0sO0-76" value="" style="endArrow=none;html=1;rounded=0;strokeWidth=1;" edge="1" parent="1">
          <mxGeometry width="50" height="50" relative="1" as="geometry">
            <mxPoint x="680" y="360" as="sourcePoint" />
            <mxPoint x="700" y="360" as="targetPoint" />
          </mxGeometry>
        </mxCell>
        <mxCell id="C4me2KuEJBU7en0Y0sO0-77" value="" style="endArrow=none;html=1;rounded=0;strokeWidth=1;" edge="1" parent="1">
          <mxGeometry width="50" height="50" relative="1" as="geometry">
            <mxPoint x="700" y="360" as="sourcePoint" />
            <mxPoint x="700" y="280" as="targetPoint" />
          </mxGeometry>
        </mxCell>
        <mxCell id="C4me2KuEJBU7en0Y0sO0-78" value="" style="endArrow=none;html=1;rounded=0;strokeWidth=1;" edge="1" parent="1">
          <mxGeometry width="50" height="50" relative="1" as="geometry">
            <mxPoint x="700" y="280" as="sourcePoint" />
            <mxPoint x="720" y="280" as="targetPoint" />
          </mxGeometry>
        </mxCell>
        <mxCell id="C4me2KuEJBU7en0Y0sO0-79" value="" style="endArrow=none;html=1;rounded=0;strokeWidth=1;" edge="1" parent="1">
          <mxGeometry width="50" height="50" relative="1" as="geometry">
            <mxPoint x="720" y="360" as="sourcePoint" />
            <mxPoint x="720" y="280" as="targetPoint" />
          </mxGeometry>
        </mxCell>
        <mxCell id="C4me2KuEJBU7en0Y0sO0-80" value="" style="endArrow=none;html=1;rounded=0;strokeWidth=1;" edge="1" parent="1">
          <mxGeometry width="50" height="50" relative="1" as="geometry">
            <mxPoint x="720" y="360" as="sourcePoint" />
            <mxPoint x="740" y="360" as="targetPoint" />
          </mxGeometry>
        </mxCell>
        <mxCell id="C4me2KuEJBU7en0Y0sO0-81" value="" style="endArrow=none;html=1;rounded=0;strokeWidth=1;" edge="1" parent="1">
          <mxGeometry width="50" height="50" relative="1" as="geometry">
            <mxPoint x="740" y="360" as="sourcePoint" />
            <mxPoint x="740" y="280" as="targetPoint" />
          </mxGeometry>
        </mxCell>
        <mxCell id="C4me2KuEJBU7en0Y0sO0-82" value="" style="endArrow=none;html=1;rounded=0;strokeWidth=1;" edge="1" parent="1">
          <mxGeometry width="50" height="50" relative="1" as="geometry">
            <mxPoint x="740" y="280" as="sourcePoint" />
            <mxPoint x="760" y="280" as="targetPoint" />
          </mxGeometry>
        </mxCell>
        <mxCell id="C4me2KuEJBU7en0Y0sO0-83" value="" style="endArrow=none;html=1;rounded=0;strokeWidth=1;" edge="1" parent="1">
          <mxGeometry width="50" height="50" relative="1" as="geometry">
            <mxPoint x="760" y="280" as="sourcePoint" />
            <mxPoint x="760" y="360" as="targetPoint" />
          </mxGeometry>
        </mxCell>
        <mxCell id="C4me2KuEJBU7en0Y0sO0-84" value="" style="endArrow=none;html=1;rounded=0;strokeWidth=1;" edge="1" parent="1">
          <mxGeometry width="50" height="50" relative="1" as="geometry">
            <mxPoint x="760" y="360" as="sourcePoint" />
            <mxPoint x="780" y="360" as="targetPoint" />
          </mxGeometry>
        </mxCell>
        <mxCell id="C4me2KuEJBU7en0Y0sO0-85" value="" style="endArrow=none;html=1;rounded=0;strokeWidth=1;" edge="1" parent="1">
          <mxGeometry width="50" height="50" relative="1" as="geometry">
            <mxPoint x="780" y="360" as="sourcePoint" />
            <mxPoint x="780" y="280" as="targetPoint" />
          </mxGeometry>
        </mxCell>
        <mxCell id="C4me2KuEJBU7en0Y0sO0-86" value="" style="endArrow=none;html=1;rounded=0;strokeWidth=1;" edge="1" parent="1">
          <mxGeometry width="50" height="50" relative="1" as="geometry">
            <mxPoint x="800" y="280" as="sourcePoint" />
            <mxPoint x="780" y="280" as="targetPoint" />
          </mxGeometry>
        </mxCell>
        <mxCell id="C4me2KuEJBU7en0Y0sO0-87" value="" style="endArrow=none;html=1;rounded=0;strokeWidth=1;" edge="1" parent="1">
          <mxGeometry width="50" height="50" relative="1" as="geometry">
            <mxPoint x="800" y="360" as="sourcePoint" />
            <mxPoint x="800" y="280" as="targetPoint" />
          </mxGeometry>
        </mxCell>
        <mxCell id="C4me2KuEJBU7en0Y0sO0-88" value="" style="endArrow=none;html=1;rounded=0;strokeWidth=1;" edge="1" parent="1">
          <mxGeometry width="50" height="50" relative="1" as="geometry">
            <mxPoint x="800" y="360" as="sourcePoint" />
            <mxPoint x="820" y="360" as="targetPoint" />
          </mxGeometry>
        </mxCell>
        <mxCell id="C4me2KuEJBU7en0Y0sO0-89" value="" style="endArrow=none;html=1;rounded=0;strokeWidth=1;" edge="1" parent="1">
          <mxGeometry width="50" height="50" relative="1" as="geometry">
            <mxPoint x="820" y="280" as="sourcePoint" />
            <mxPoint x="820" y="360" as="targetPoint" />
          </mxGeometry>
        </mxCell>
        <mxCell id="C4me2KuEJBU7en0Y0sO0-90" value="" style="endArrow=none;html=1;rounded=0;strokeWidth=1;" edge="1" parent="1">
          <mxGeometry width="50" height="50" relative="1" as="geometry">
            <mxPoint x="820" y="280" as="sourcePoint" />
            <mxPoint x="860" y="280" as="targetPoint" />
          </mxGeometry>
        </mxCell>
        <mxCell id="C4me2KuEJBU7en0Y0sO0-91" value="" style="endArrow=none;html=1;rounded=0;strokeWidth=1;" edge="1" parent="1">
          <mxGeometry width="50" height="50" relative="1" as="geometry">
            <mxPoint x="860" y="360" as="sourcePoint" />
            <mxPoint x="860" y="280" as="targetPoint" />
          </mxGeometry>
        </mxCell>
        <mxCell id="C4me2KuEJBU7en0Y0sO0-92" value="" style="endArrow=none;html=1;rounded=0;strokeWidth=1;" edge="1" parent="1">
          <mxGeometry width="50" height="50" relative="1" as="geometry">
            <mxPoint x="880" y="360" as="sourcePoint" />
            <mxPoint x="860" y="360" as="targetPoint" />
          </mxGeometry>
        </mxCell>
        <mxCell id="C4me2KuEJBU7en0Y0sO0-93" value="" style="endArrow=none;html=1;rounded=0;strokeWidth=1;" edge="1" parent="1">
          <mxGeometry width="50" height="50" relative="1" as="geometry">
            <mxPoint x="880" y="360" as="sourcePoint" />
            <mxPoint x="880" y="280" as="targetPoint" />
          </mxGeometry>
        </mxCell>
        <mxCell id="C4me2KuEJBU7en0Y0sO0-94" value="" style="endArrow=none;html=1;rounded=0;strokeWidth=1;" edge="1" parent="1">
          <mxGeometry width="50" height="50" relative="1" as="geometry">
            <mxPoint x="900" y="280" as="sourcePoint" />
            <mxPoint x="880" y="280" as="targetPoint" />
          </mxGeometry>
        </mxCell>
        <mxCell id="C4me2KuEJBU7en0Y0sO0-95" value="" style="endArrow=none;html=1;rounded=0;strokeWidth=1;" edge="1" parent="1">
          <mxGeometry width="50" height="50" relative="1" as="geometry">
            <mxPoint x="900" y="280" as="sourcePoint" />
            <mxPoint x="900" y="360" as="targetPoint" />
          </mxGeometry>
        </mxCell>
        <mxCell id="C4me2KuEJBU7en0Y0sO0-96" value="" style="endArrow=none;html=1;rounded=0;strokeWidth=1;" edge="1" parent="1">
          <mxGeometry width="50" height="50" relative="1" as="geometry">
            <mxPoint x="940" y="360" as="sourcePoint" />
            <mxPoint x="900" y="360" as="targetPoint" />
          </mxGeometry>
        </mxCell>
        <mxCell id="C4me2KuEJBU7en0Y0sO0-97" value="" style="endArrow=none;html=1;rounded=0;strokeWidth=1;" edge="1" parent="1">
          <mxGeometry width="50" height="50" relative="1" as="geometry">
            <mxPoint x="940" y="280" as="sourcePoint" />
            <mxPoint x="940" y="360" as="targetPoint" />
          </mxGeometry>
        </mxCell>
        <mxCell id="C4me2KuEJBU7en0Y0sO0-98" value="" style="endArrow=none;html=1;rounded=0;strokeWidth=1;" edge="1" parent="1">
          <mxGeometry width="50" height="50" relative="1" as="geometry">
            <mxPoint x="980" y="280" as="sourcePoint" />
            <mxPoint x="940" y="280" as="targetPoint" />
          </mxGeometry>
        </mxCell>
        <mxCell id="C4me2KuEJBU7en0Y0sO0-99" value="" style="endArrow=none;html=1;rounded=0;strokeWidth=1;" edge="1" parent="1">
          <mxGeometry width="50" height="50" relative="1" as="geometry">
            <mxPoint x="980" y="280" as="sourcePoint" />
            <mxPoint x="980" y="360" as="targetPoint" />
          </mxGeometry>
        </mxCell>
        <mxCell id="C4me2KuEJBU7en0Y0sO0-100" value="" style="endArrow=none;html=1;rounded=0;strokeWidth=1;" edge="1" parent="1">
          <mxGeometry width="50" height="50" relative="1" as="geometry">
            <mxPoint x="980" y="360" as="sourcePoint" />
            <mxPoint x="1020" y="360" as="targetPoint" />
          </mxGeometry>
        </mxCell>
        <mxCell id="C4me2KuEJBU7en0Y0sO0-101" value="" style="endArrow=none;html=1;rounded=0;strokeWidth=1;" edge="1" parent="1">
          <mxGeometry width="50" height="50" relative="1" as="geometry">
            <mxPoint x="1020" y="280" as="sourcePoint" />
            <mxPoint x="1020" y="360" as="targetPoint" />
          </mxGeometry>
        </mxCell>
        <mxCell id="C4me2KuEJBU7en0Y0sO0-102" value="" style="endArrow=none;html=1;rounded=0;strokeWidth=1;" edge="1" parent="1">
          <mxGeometry width="50" height="50" relative="1" as="geometry">
            <mxPoint x="1040" y="280" as="sourcePoint" />
            <mxPoint x="1020" y="280" as="targetPoint" />
          </mxGeometry>
        </mxCell>
        <mxCell id="C4me2KuEJBU7en0Y0sO0-103" value="" style="endArrow=none;html=1;rounded=0;strokeWidth=1;" edge="1" parent="1">
          <mxGeometry width="50" height="50" relative="1" as="geometry">
            <mxPoint x="1040" y="280" as="sourcePoint" />
            <mxPoint x="1040" y="360" as="targetPoint" />
          </mxGeometry>
        </mxCell>
        <mxCell id="C4me2KuEJBU7en0Y0sO0-104" value="" style="endArrow=none;html=1;rounded=0;strokeWidth=1;" edge="1" parent="1">
          <mxGeometry width="50" height="50" relative="1" as="geometry">
            <mxPoint x="1060" y="360" as="sourcePoint" />
            <mxPoint x="1040" y="360" as="targetPoint" />
          </mxGeometry>
        </mxCell>
        <mxCell id="C4me2KuEJBU7en0Y0sO0-105" value="" style="endArrow=none;html=1;rounded=0;strokeWidth=1;" edge="1" parent="1">
          <mxGeometry width="50" height="50" relative="1" as="geometry">
            <mxPoint x="1060" y="280" as="sourcePoint" />
            <mxPoint x="1060" y="360" as="targetPoint" />
          </mxGeometry>
        </mxCell>
        <mxCell id="C4me2KuEJBU7en0Y0sO0-106" value="" style="endArrow=none;html=1;rounded=0;strokeWidth=1;" edge="1" parent="1">
          <mxGeometry width="50" height="50" relative="1" as="geometry">
            <mxPoint x="1060" y="280" as="sourcePoint" />
            <mxPoint x="1080" y="280" as="targetPoint" />
          </mxGeometry>
        </mxCell>
        <mxCell id="C4me2KuEJBU7en0Y0sO0-107" value="" style="endArrow=none;html=1;rounded=0;strokeWidth=1;" edge="1" parent="1">
          <mxGeometry width="50" height="50" relative="1" as="geometry">
            <mxPoint x="1080" y="280" as="sourcePoint" />
            <mxPoint x="1080" y="360" as="targetPoint" />
          </mxGeometry>
        </mxCell>
        <mxCell id="C4me2KuEJBU7en0Y0sO0-108" value="" style="endArrow=none;html=1;rounded=0;strokeWidth=1;" edge="1" parent="1">
          <mxGeometry width="50" height="50" relative="1" as="geometry">
            <mxPoint x="1100" y="360" as="sourcePoint" />
            <mxPoint x="1080" y="360" as="targetPoint" />
          </mxGeometry>
        </mxCell>
        <mxCell id="C4me2KuEJBU7en0Y0sO0-109" value="" style="endArrow=none;html=1;rounded=0;strokeWidth=1;" edge="1" parent="1">
          <mxGeometry width="50" height="50" relative="1" as="geometry">
            <mxPoint x="1100" y="280" as="sourcePoint" />
            <mxPoint x="1100" y="360" as="targetPoint" />
          </mxGeometry>
        </mxCell>
        <mxCell id="C4me2KuEJBU7en0Y0sO0-110" value="" style="endArrow=none;html=1;rounded=0;strokeWidth=1;" edge="1" parent="1">
          <mxGeometry width="50" height="50" relative="1" as="geometry">
            <mxPoint x="1120" y="280" as="sourcePoint" />
            <mxPoint x="1100" y="280" as="targetPoint" />
          </mxGeometry>
        </mxCell>
        <mxCell id="C4me2KuEJBU7en0Y0sO0-111" value="" style="endArrow=none;html=1;rounded=0;strokeWidth=1;" edge="1" parent="1">
          <mxGeometry width="50" height="50" relative="1" as="geometry">
            <mxPoint x="1120" y="280" as="sourcePoint" />
            <mxPoint x="1120" y="360" as="targetPoint" />
          </mxGeometry>
        </mxCell>
        <mxCell id="C4me2KuEJBU7en0Y0sO0-112" value="" style="endArrow=none;html=1;rounded=0;strokeWidth=1;" edge="1" parent="1">
          <mxGeometry width="50" height="50" relative="1" as="geometry">
            <mxPoint x="1140" y="360" as="sourcePoint" />
            <mxPoint x="1120" y="360" as="targetPoint" />
          </mxGeometry>
        </mxCell>
        <mxCell id="C4me2KuEJBU7en0Y0sO0-113" value="" style="endArrow=none;html=1;rounded=0;strokeWidth=1;" edge="1" parent="1">
          <mxGeometry width="50" height="50" relative="1" as="geometry">
            <mxPoint x="1140" y="360" as="sourcePoint" />
            <mxPoint x="1140" y="280" as="targetPoint" />
          </mxGeometry>
        </mxCell>
        <mxCell id="C4me2KuEJBU7en0Y0sO0-114" value="" style="endArrow=none;html=1;rounded=0;strokeWidth=1;" edge="1" parent="1">
          <mxGeometry width="50" height="50" relative="1" as="geometry">
            <mxPoint x="1140" y="280" as="sourcePoint" />
            <mxPoint x="1180" y="280" as="targetPoint" />
          </mxGeometry>
        </mxCell>
        <mxCell id="C4me2KuEJBU7en0Y0sO0-115" value="" style="endArrow=none;html=1;rounded=0;strokeWidth=1;" edge="1" parent="1">
          <mxGeometry width="50" height="50" relative="1" as="geometry">
            <mxPoint x="1180" y="280" as="sourcePoint" />
            <mxPoint x="1180" y="360" as="targetPoint" />
          </mxGeometry>
        </mxCell>
        <mxCell id="C4me2KuEJBU7en0Y0sO0-116" value="" style="endArrow=none;html=1;rounded=0;strokeWidth=1;" edge="1" parent="1">
          <mxGeometry width="50" height="50" relative="1" as="geometry">
            <mxPoint x="1200" y="360" as="sourcePoint" />
            <mxPoint x="1180" y="360" as="targetPoint" />
          </mxGeometry>
        </mxCell>
        <mxCell id="C4me2KuEJBU7en0Y0sO0-117" value="" style="endArrow=none;html=1;rounded=0;strokeWidth=1;" edge="1" parent="1">
          <mxGeometry width="50" height="50" relative="1" as="geometry">
            <mxPoint x="1200" y="280" as="sourcePoint" />
            <mxPoint x="1200" y="360" as="targetPoint" />
          </mxGeometry>
        </mxCell>
        <mxCell id="C4me2KuEJBU7en0Y0sO0-118" value="" style="endArrow=none;html=1;rounded=0;strokeWidth=1;" edge="1" parent="1">
          <mxGeometry width="50" height="50" relative="1" as="geometry">
            <mxPoint x="1200" y="280" as="sourcePoint" />
            <mxPoint x="1220" y="280" as="targetPoint" />
          </mxGeometry>
        </mxCell>
        <mxCell id="C4me2KuEJBU7en0Y0sO0-119" value="" style="endArrow=none;html=1;rounded=0;strokeWidth=1;" edge="1" parent="1">
          <mxGeometry width="50" height="50" relative="1" as="geometry">
            <mxPoint x="1220" y="280" as="sourcePoint" />
            <mxPoint x="1220" y="360" as="targetPoint" />
          </mxGeometry>
        </mxCell>
        <mxCell id="C4me2KuEJBU7en0Y0sO0-120" value="" style="endArrow=none;html=1;rounded=0;strokeWidth=1;" edge="1" parent="1">
          <mxGeometry width="50" height="50" relative="1" as="geometry">
            <mxPoint x="1260" y="360" as="sourcePoint" />
            <mxPoint x="1220" y="360" as="targetPoint" />
          </mxGeometry>
        </mxCell>
        <mxCell id="C4me2KuEJBU7en0Y0sO0-121" value="" style="endArrow=none;html=1;rounded=0;strokeWidth=1;" edge="1" parent="1">
          <mxGeometry width="50" height="50" relative="1" as="geometry">
            <mxPoint x="1260" y="280" as="sourcePoint" />
            <mxPoint x="1260" y="360" as="targetPoint" />
          </mxGeometry>
        </mxCell>
        <mxCell id="C4me2KuEJBU7en0Y0sO0-122" value="" style="endArrow=none;html=1;rounded=0;strokeWidth=1;" edge="1" parent="1">
          <mxGeometry width="50" height="50" relative="1" as="geometry">
            <mxPoint x="1280" y="280" as="sourcePoint" />
            <mxPoint x="1260" y="280" as="targetPoint" />
          </mxGeometry>
        </mxCell>
        <mxCell id="C4me2KuEJBU7en0Y0sO0-123" value="" style="endArrow=none;html=1;rounded=0;strokeWidth=1;" edge="1" parent="1">
          <mxGeometry width="50" height="50" relative="1" as="geometry">
            <mxPoint x="1280" y="280" as="sourcePoint" />
            <mxPoint x="1280" y="360" as="targetPoint" />
          </mxGeometry>
        </mxCell>
        <mxCell id="C4me2KuEJBU7en0Y0sO0-124" value="" style="endArrow=none;html=1;rounded=0;strokeWidth=1;" edge="1" parent="1">
          <mxGeometry width="50" height="50" relative="1" as="geometry">
            <mxPoint x="1300" y="360" as="sourcePoint" />
            <mxPoint x="1280" y="360" as="targetPoint" />
          </mxGeometry>
        </mxCell>
        <mxCell id="C4me2KuEJBU7en0Y0sO0-125" value="" style="endArrow=none;html=1;rounded=0;strokeWidth=1;" edge="1" parent="1">
          <mxGeometry width="50" height="50" relative="1" as="geometry">
            <mxPoint x="1300" y="280" as="sourcePoint" />
            <mxPoint x="1300" y="360" as="targetPoint" />
          </mxGeometry>
        </mxCell>
        <mxCell id="C4me2KuEJBU7en0Y0sO0-126" value="" style="endArrow=none;html=1;rounded=0;strokeWidth=1;" edge="1" parent="1">
          <mxGeometry width="50" height="50" relative="1" as="geometry">
            <mxPoint x="1320" y="280" as="sourcePoint" />
            <mxPoint x="1300" y="280" as="targetPoint" />
          </mxGeometry>
        </mxCell>
        <mxCell id="C4me2KuEJBU7en0Y0sO0-127" value="" style="endArrow=none;html=1;rounded=0;strokeWidth=1;" edge="1" parent="1">
          <mxGeometry width="50" height="50" relative="1" as="geometry">
            <mxPoint x="1320" y="360" as="sourcePoint" />
            <mxPoint x="1320" y="280" as="targetPoint" />
          </mxGeometry>
        </mxCell>
        <mxCell id="C4me2KuEJBU7en0Y0sO0-128" value="" style="endArrow=none;html=1;rounded=0;strokeWidth=1;" edge="1" parent="1">
          <mxGeometry width="50" height="50" relative="1" as="geometry">
            <mxPoint x="1340" y="360" as="sourcePoint" />
            <mxPoint x="1340" y="280" as="targetPoint" />
          </mxGeometry>
        </mxCell>
        <mxCell id="C4me2KuEJBU7en0Y0sO0-129" value="" style="endArrow=none;html=1;rounded=0;strokeWidth=1;" edge="1" parent="1">
          <mxGeometry width="50" height="50" relative="1" as="geometry">
            <mxPoint x="1340" y="360" as="sourcePoint" />
            <mxPoint x="1320" y="360" as="targetPoint" />
          </mxGeometry>
        </mxCell>
        <mxCell id="C4me2KuEJBU7en0Y0sO0-130" value="" style="endArrow=none;html=1;rounded=0;strokeWidth=1;" edge="1" parent="1">
          <mxGeometry width="50" height="50" relative="1" as="geometry">
            <mxPoint x="1340" y="280" as="sourcePoint" />
            <mxPoint x="1380" y="280" as="targetPoint" />
          </mxGeometry>
        </mxCell>
        <mxCell id="C4me2KuEJBU7en0Y0sO0-131" value="" style="endArrow=none;html=1;rounded=0;strokeWidth=1;" edge="1" parent="1">
          <mxGeometry width="50" height="50" relative="1" as="geometry">
            <mxPoint x="1380" y="360" as="sourcePoint" />
            <mxPoint x="1380" y="280" as="targetPoint" />
          </mxGeometry>
        </mxCell>
        <mxCell id="C4me2KuEJBU7en0Y0sO0-132" value="" style="endArrow=none;html=1;rounded=0;strokeWidth=1;" edge="1" parent="1">
          <mxGeometry width="50" height="50" relative="1" as="geometry">
            <mxPoint x="1420" y="360" as="sourcePoint" />
            <mxPoint x="1380" y="360" as="targetPoint" />
          </mxGeometry>
        </mxCell>
        <mxCell id="C4me2KuEJBU7en0Y0sO0-133" value="" style="endArrow=none;html=1;rounded=0;strokeWidth=1;" edge="1" parent="1">
          <mxGeometry width="50" height="50" relative="1" as="geometry">
            <mxPoint x="1420" y="280" as="sourcePoint" />
            <mxPoint x="1420" y="360" as="targetPoint" />
          </mxGeometry>
        </mxCell>
        <mxCell id="C4me2KuEJBU7en0Y0sO0-134" value="" style="endArrow=none;html=1;rounded=0;strokeWidth=1;" edge="1" parent="1">
          <mxGeometry width="50" height="50" relative="1" as="geometry">
            <mxPoint x="1420" y="280" as="sourcePoint" />
            <mxPoint x="1440" y="280" as="targetPoint" />
          </mxGeometry>
        </mxCell>
        <mxCell id="C4me2KuEJBU7en0Y0sO0-135" value="" style="endArrow=none;html=1;rounded=0;strokeWidth=1;" edge="1" parent="1">
          <mxGeometry width="50" height="50" relative="1" as="geometry">
            <mxPoint x="1440" y="360" as="sourcePoint" />
            <mxPoint x="1440" y="280" as="targetPoint" />
          </mxGeometry>
        </mxCell>
        <mxCell id="C4me2KuEJBU7en0Y0sO0-136" value="" style="endArrow=none;html=1;rounded=0;strokeWidth=1;" edge="1" parent="1">
          <mxGeometry width="50" height="50" relative="1" as="geometry">
            <mxPoint x="1460" y="360" as="sourcePoint" />
            <mxPoint x="1440" y="360" as="targetPoint" />
          </mxGeometry>
        </mxCell>
        <mxCell id="C4me2KuEJBU7en0Y0sO0-137" value="" style="endArrow=none;html=1;rounded=0;strokeWidth=1;" edge="1" parent="1">
          <mxGeometry width="50" height="50" relative="1" as="geometry">
            <mxPoint x="1460" y="360" as="sourcePoint" />
            <mxPoint x="1460" y="280" as="targetPoint" />
          </mxGeometry>
        </mxCell>
        <mxCell id="C4me2KuEJBU7en0Y0sO0-138" value="" style="endArrow=none;html=1;rounded=0;strokeWidth=1;" edge="1" parent="1">
          <mxGeometry width="50" height="50" relative="1" as="geometry">
            <mxPoint x="1460" y="280" as="sourcePoint" />
            <mxPoint x="1480" y="280" as="targetPoint" />
          </mxGeometry>
        </mxCell>
        <mxCell id="C4me2KuEJBU7en0Y0sO0-139" value="&lt;font style=&quot;font-size: 18px;&quot;&gt;Manchester_code&lt;/font&gt;" style="text;html=1;align=center;verticalAlign=middle;whiteSpace=wrap;rounded=0;" vertex="1" parent="1">
          <mxGeometry x="90" y="260" width="60" height="30" as="geometry" />
        </mxCell>
        <mxCell id="C4me2KuEJBU7en0Y0sO0-140" value="" style="endArrow=none;html=1;rounded=0;" edge="1" parent="1">
          <mxGeometry width="50" height="50" relative="1" as="geometry">
            <mxPoint x="200" y="400" as="sourcePoint" />
            <mxPoint x="280" y="400" as="targetPoint" />
          </mxGeometry>
        </mxCell>
        <mxCell id="C4me2KuEJBU7en0Y0sO0-141" value="" style="endArrow=none;html=1;rounded=0;" edge="1" parent="1">
          <mxGeometry width="50" height="50" relative="1" as="geometry">
            <mxPoint x="280" y="400" as="sourcePoint" />
            <mxPoint x="280" y="480" as="targetPoint" />
          </mxGeometry>
        </mxCell>
        <mxCell id="C4me2KuEJBU7en0Y0sO0-142" value="" style="endArrow=none;html=1;rounded=0;" edge="1" parent="1">
          <mxGeometry width="50" height="50" relative="1" as="geometry">
            <mxPoint x="280" y="480" as="sourcePoint" />
            <mxPoint x="480" y="480" as="targetPoint" />
          </mxGeometry>
        </mxCell>
        <mxCell id="C4me2KuEJBU7en0Y0sO0-143" value="" style="endArrow=none;html=1;rounded=0;" edge="1" parent="1">
          <mxGeometry width="50" height="50" relative="1" as="geometry">
            <mxPoint x="480" y="480" as="sourcePoint" />
            <mxPoint x="480" y="400" as="targetPoint" />
          </mxGeometry>
        </mxCell>
        <mxCell id="C4me2KuEJBU7en0Y0sO0-144" value="" style="endArrow=none;html=1;rounded=0;" edge="1" parent="1">
          <mxGeometry width="50" height="50" relative="1" as="geometry">
            <mxPoint x="480" y="400" as="sourcePoint" />
            <mxPoint x="640" y="400" as="targetPoint" />
          </mxGeometry>
        </mxCell>
        <mxCell id="C4me2KuEJBU7en0Y0sO0-145" value="" style="endArrow=none;html=1;rounded=0;" edge="1" parent="1">
          <mxGeometry width="50" height="50" relative="1" as="geometry">
            <mxPoint x="640" y="480" as="sourcePoint" />
            <mxPoint x="640" y="400" as="targetPoint" />
          </mxGeometry>
        </mxCell>
        <mxCell id="C4me2KuEJBU7en0Y0sO0-146" value="" style="endArrow=none;html=1;rounded=0;" edge="1" parent="1">
          <mxGeometry width="50" height="50" relative="1" as="geometry">
            <mxPoint x="640" y="480" as="sourcePoint" />
            <mxPoint x="840" y="480" as="targetPoint" />
          </mxGeometry>
        </mxCell>
        <mxCell id="C4me2KuEJBU7en0Y0sO0-147" value="" style="endArrow=none;html=1;rounded=0;" edge="1" parent="1">
          <mxGeometry width="50" height="50" relative="1" as="geometry">
            <mxPoint x="840" y="480" as="sourcePoint" />
            <mxPoint x="840" y="400" as="targetPoint" />
          </mxGeometry>
        </mxCell>
        <mxCell id="C4me2KuEJBU7en0Y0sO0-148" value="" style="endArrow=none;html=1;rounded=0;" edge="1" parent="1">
          <mxGeometry width="50" height="50" relative="1" as="geometry">
            <mxPoint x="840" y="400" as="sourcePoint" />
            <mxPoint x="920" y="400" as="targetPoint" />
          </mxGeometry>
        </mxCell>
        <mxCell id="C4me2KuEJBU7en0Y0sO0-149" value="" style="endArrow=none;html=1;rounded=0;" edge="1" parent="1">
          <mxGeometry width="50" height="50" relative="1" as="geometry">
            <mxPoint x="920" y="480" as="sourcePoint" />
            <mxPoint x="920" y="400" as="targetPoint" />
          </mxGeometry>
        </mxCell>
        <mxCell id="C4me2KuEJBU7en0Y0sO0-150" value="" style="endArrow=none;html=1;rounded=0;" edge="1" parent="1">
          <mxGeometry width="50" height="50" relative="1" as="geometry">
            <mxPoint x="920" y="480" as="sourcePoint" />
            <mxPoint x="960" y="480" as="targetPoint" />
          </mxGeometry>
        </mxCell>
        <mxCell id="C4me2KuEJBU7en0Y0sO0-151" value="" style="endArrow=none;html=1;rounded=0;" edge="1" parent="1">
          <mxGeometry width="50" height="50" relative="1" as="geometry">
            <mxPoint x="960" y="480" as="sourcePoint" />
            <mxPoint x="960" y="400" as="targetPoint" />
          </mxGeometry>
        </mxCell>
        <mxCell id="C4me2KuEJBU7en0Y0sO0-152" value="" style="endArrow=none;html=1;rounded=0;" edge="1" parent="1">
          <mxGeometry width="50" height="50" relative="1" as="geometry">
            <mxPoint x="960" y="400" as="sourcePoint" />
            <mxPoint x="1000" y="400" as="targetPoint" />
          </mxGeometry>
        </mxCell>
        <mxCell id="C4me2KuEJBU7en0Y0sO0-153" value="" style="endArrow=none;html=1;rounded=0;" edge="1" parent="1">
          <mxGeometry width="50" height="50" relative="1" as="geometry">
            <mxPoint x="1000" y="400" as="sourcePoint" />
            <mxPoint x="1000" y="480" as="targetPoint" />
          </mxGeometry>
        </mxCell>
        <mxCell id="C4me2KuEJBU7en0Y0sO0-154" value="" style="endArrow=none;html=1;rounded=0;" edge="1" parent="1">
          <mxGeometry width="50" height="50" relative="1" as="geometry">
            <mxPoint x="1000" y="480" as="sourcePoint" />
            <mxPoint x="1160" y="480" as="targetPoint" />
          </mxGeometry>
        </mxCell>
        <mxCell id="C4me2KuEJBU7en0Y0sO0-155" value="" style="endArrow=none;html=1;rounded=0;" edge="1" parent="1">
          <mxGeometry width="50" height="50" relative="1" as="geometry">
            <mxPoint x="1160" y="480" as="sourcePoint" />
            <mxPoint x="1160" y="400" as="targetPoint" />
          </mxGeometry>
        </mxCell>
        <mxCell id="C4me2KuEJBU7en0Y0sO0-156" value="" style="endArrow=none;html=1;rounded=0;" edge="1" parent="1">
          <mxGeometry width="50" height="50" relative="1" as="geometry">
            <mxPoint x="1160" y="400" as="sourcePoint" />
            <mxPoint x="1240" y="400" as="targetPoint" />
          </mxGeometry>
        </mxCell>
        <mxCell id="C4me2KuEJBU7en0Y0sO0-157" value="" style="endArrow=none;html=1;rounded=0;" edge="1" parent="1">
          <mxGeometry width="50" height="50" relative="1" as="geometry">
            <mxPoint x="1240" y="480" as="sourcePoint" />
            <mxPoint x="1240" y="400" as="targetPoint" />
          </mxGeometry>
        </mxCell>
        <mxCell id="C4me2KuEJBU7en0Y0sO0-158" value="" style="endArrow=none;html=1;rounded=0;" edge="1" parent="1">
          <mxGeometry width="50" height="50" relative="1" as="geometry">
            <mxPoint x="1360" y="480" as="sourcePoint" />
            <mxPoint x="1240" y="480" as="targetPoint" />
          </mxGeometry>
        </mxCell>
        <mxCell id="C4me2KuEJBU7en0Y0sO0-159" value="" style="endArrow=none;html=1;rounded=0;" edge="1" parent="1">
          <mxGeometry width="50" height="50" relative="1" as="geometry">
            <mxPoint x="1360" y="400" as="sourcePoint" />
            <mxPoint x="1360" y="480" as="targetPoint" />
          </mxGeometry>
        </mxCell>
        <mxCell id="C4me2KuEJBU7en0Y0sO0-160" value="" style="endArrow=none;html=1;rounded=0;" edge="1" parent="1">
          <mxGeometry width="50" height="50" relative="1" as="geometry">
            <mxPoint x="1400" y="400" as="sourcePoint" />
            <mxPoint x="1360" y="400" as="targetPoint" />
          </mxGeometry>
        </mxCell>
        <mxCell id="C4me2KuEJBU7en0Y0sO0-161" value="" style="endArrow=none;html=1;rounded=0;" edge="1" parent="1">
          <mxGeometry width="50" height="50" relative="1" as="geometry">
            <mxPoint x="1400" y="480" as="sourcePoint" />
            <mxPoint x="1400" y="400" as="targetPoint" />
          </mxGeometry>
        </mxCell>
        <mxCell id="C4me2KuEJBU7en0Y0sO0-162" value="" style="endArrow=none;html=1;rounded=0;" edge="1" parent="1">
          <mxGeometry width="50" height="50" relative="1" as="geometry">
            <mxPoint x="1400" y="480" as="sourcePoint" />
            <mxPoint x="1480" y="480" as="targetPoint" />
          </mxGeometry>
        </mxCell>
        <mxCell id="C4me2KuEJBU7en0Y0sO0-163" value="&lt;font style=&quot;font-size: 18px;&quot;&gt;NRZ&lt;/font&gt;" style="text;html=1;align=center;verticalAlign=middle;whiteSpace=wrap;rounded=0;" vertex="1" parent="1">
          <mxGeometry x="130" y="390" width="60" height="30" as="geometry" />
        </mxCell>
        <mxCell id="C4me2KuEJBU7en0Y0sO0-164" value="" style="endArrow=none;html=1;rounded=0;" edge="1" parent="1">
          <mxGeometry width="50" height="50" relative="1" as="geometry">
            <mxPoint x="200" y="520" as="sourcePoint" />
            <mxPoint x="220" y="520" as="targetPoint" />
          </mxGeometry>
        </mxCell>
        <mxCell id="C4me2KuEJBU7en0Y0sO0-165" value="" style="endArrow=none;html=1;rounded=0;" edge="1" parent="1">
          <mxGeometry width="50" height="50" relative="1" as="geometry">
            <mxPoint x="220" y="560" as="sourcePoint" />
            <mxPoint x="220" y="520" as="targetPoint" />
          </mxGeometry>
        </mxCell>
        <mxCell id="C4me2KuEJBU7en0Y0sO0-166" value="" style="endArrow=none;html=1;rounded=0;" edge="1" parent="1">
          <mxGeometry width="50" height="50" relative="1" as="geometry">
            <mxPoint x="220" y="560" as="sourcePoint" />
            <mxPoint x="240" y="560" as="targetPoint" />
          </mxGeometry>
        </mxCell>
        <mxCell id="C4me2KuEJBU7en0Y0sO0-167" value="" style="endArrow=none;html=1;rounded=0;" edge="1" parent="1">
          <mxGeometry width="50" height="50" relative="1" as="geometry">
            <mxPoint x="240" y="520" as="sourcePoint" />
            <mxPoint x="240" y="560" as="targetPoint" />
          </mxGeometry>
        </mxCell>
        <mxCell id="C4me2KuEJBU7en0Y0sO0-168" value="" style="endArrow=none;html=1;rounded=0;" edge="1" parent="1">
          <mxGeometry width="50" height="50" relative="1" as="geometry">
            <mxPoint x="240" y="520" as="sourcePoint" />
            <mxPoint x="260" y="520" as="targetPoint" />
          </mxGeometry>
        </mxCell>
        <mxCell id="C4me2KuEJBU7en0Y0sO0-169" value="" style="endArrow=none;html=1;rounded=0;" edge="1" parent="1">
          <mxGeometry width="50" height="50" relative="1" as="geometry">
            <mxPoint x="260" y="520" as="sourcePoint" />
            <mxPoint x="260" y="560" as="targetPoint" />
          </mxGeometry>
        </mxCell>
        <mxCell id="C4me2KuEJBU7en0Y0sO0-170" value="" style="endArrow=none;html=1;rounded=0;" edge="1" parent="1">
          <mxGeometry width="50" height="50" relative="1" as="geometry">
            <mxPoint x="260" y="560" as="sourcePoint" />
            <mxPoint x="280" y="560" as="targetPoint" />
          </mxGeometry>
        </mxCell>
        <mxCell id="C4me2KuEJBU7en0Y0sO0-171" value="" style="endArrow=none;html=1;rounded=0;" edge="1" parent="1">
          <mxGeometry width="50" height="50" relative="1" as="geometry">
            <mxPoint x="280" y="560" as="sourcePoint" />
            <mxPoint x="280" y="600" as="targetPoint" />
          </mxGeometry>
        </mxCell>
        <mxCell id="C4me2KuEJBU7en0Y0sO0-172" value="" style="endArrow=none;html=1;rounded=0;" edge="1" parent="1">
          <mxGeometry width="50" height="50" relative="1" as="geometry">
            <mxPoint x="280" y="600" as="sourcePoint" />
            <mxPoint x="300" y="600" as="targetPoint" />
          </mxGeometry>
        </mxCell>
        <mxCell id="C4me2KuEJBU7en0Y0sO0-173" value="" style="endArrow=none;html=1;rounded=0;" edge="1" parent="1">
          <mxGeometry width="50" height="50" relative="1" as="geometry">
            <mxPoint x="300" y="600" as="sourcePoint" />
            <mxPoint x="300" y="560" as="targetPoint" />
          </mxGeometry>
        </mxCell>
        <mxCell id="C4me2KuEJBU7en0Y0sO0-174" value="" style="endArrow=none;html=1;rounded=0;" edge="1" parent="1">
          <mxGeometry width="50" height="50" relative="1" as="geometry">
            <mxPoint x="300" y="560" as="sourcePoint" />
            <mxPoint x="320" y="560" as="targetPoint" />
          </mxGeometry>
        </mxCell>
        <mxCell id="C4me2KuEJBU7en0Y0sO0-175" value="" style="endArrow=none;html=1;rounded=0;" edge="1" parent="1">
          <mxGeometry width="50" height="50" relative="1" as="geometry">
            <mxPoint x="320" y="560" as="sourcePoint" />
            <mxPoint x="320" y="600" as="targetPoint" />
          </mxGeometry>
        </mxCell>
        <mxCell id="C4me2KuEJBU7en0Y0sO0-176" value="" style="endArrow=none;html=1;rounded=0;" edge="1" parent="1">
          <mxGeometry width="50" height="50" relative="1" as="geometry">
            <mxPoint x="320" y="600" as="sourcePoint" />
            <mxPoint x="340" y="600" as="targetPoint" />
          </mxGeometry>
        </mxCell>
        <mxCell id="C4me2KuEJBU7en0Y0sO0-177" value="" style="endArrow=none;html=1;rounded=0;" edge="1" parent="1">
          <mxGeometry width="50" height="50" relative="1" as="geometry">
            <mxPoint x="340" y="560" as="sourcePoint" />
            <mxPoint x="340" y="600" as="targetPoint" />
          </mxGeometry>
        </mxCell>
        <mxCell id="C4me2KuEJBU7en0Y0sO0-178" value="" style="endArrow=none;html=1;rounded=0;" edge="1" parent="1">
          <mxGeometry width="50" height="50" relative="1" as="geometry">
            <mxPoint x="340" y="560" as="sourcePoint" />
            <mxPoint x="360" y="560" as="targetPoint" />
          </mxGeometry>
        </mxCell>
        <mxCell id="C4me2KuEJBU7en0Y0sO0-179" value="" style="endArrow=none;html=1;rounded=0;" edge="1" parent="1">
          <mxGeometry width="50" height="50" relative="1" as="geometry">
            <mxPoint x="360" y="560" as="sourcePoint" />
            <mxPoint x="360" y="600" as="targetPoint" />
          </mxGeometry>
        </mxCell>
        <mxCell id="C4me2KuEJBU7en0Y0sO0-180" value="" style="endArrow=none;html=1;rounded=0;" edge="1" parent="1">
          <mxGeometry width="50" height="50" relative="1" as="geometry">
            <mxPoint x="360" y="600" as="sourcePoint" />
            <mxPoint x="380" y="600" as="targetPoint" />
          </mxGeometry>
        </mxCell>
        <mxCell id="C4me2KuEJBU7en0Y0sO0-181" value="" style="endArrow=none;html=1;rounded=0;" edge="1" parent="1">
          <mxGeometry width="50" height="50" relative="1" as="geometry">
            <mxPoint x="380" y="600" as="sourcePoint" />
            <mxPoint x="380" y="560" as="targetPoint" />
          </mxGeometry>
        </mxCell>
        <mxCell id="C4me2KuEJBU7en0Y0sO0-182" value="" style="endArrow=none;html=1;rounded=0;" edge="1" parent="1">
          <mxGeometry width="50" height="50" relative="1" as="geometry">
            <mxPoint x="380" y="560" as="sourcePoint" />
            <mxPoint x="400" y="560" as="targetPoint" />
          </mxGeometry>
        </mxCell>
        <mxCell id="C4me2KuEJBU7en0Y0sO0-183" value="" style="endArrow=none;html=1;rounded=0;" edge="1" parent="1">
          <mxGeometry width="50" height="50" relative="1" as="geometry">
            <mxPoint x="400" y="560" as="sourcePoint" />
            <mxPoint x="400" y="600" as="targetPoint" />
          </mxGeometry>
        </mxCell>
        <mxCell id="C4me2KuEJBU7en0Y0sO0-184" value="" style="endArrow=none;html=1;rounded=0;" edge="1" parent="1">
          <mxGeometry width="50" height="50" relative="1" as="geometry">
            <mxPoint x="400" y="600" as="sourcePoint" />
            <mxPoint x="420" y="600" as="targetPoint" />
          </mxGeometry>
        </mxCell>
        <mxCell id="C4me2KuEJBU7en0Y0sO0-185" value="" style="endArrow=none;html=1;rounded=0;" edge="1" parent="1">
          <mxGeometry width="50" height="50" relative="1" as="geometry">
            <mxPoint x="420" y="600" as="sourcePoint" />
            <mxPoint x="420" y="560" as="targetPoint" />
          </mxGeometry>
        </mxCell>
        <mxCell id="C4me2KuEJBU7en0Y0sO0-186" value="" style="endArrow=none;html=1;rounded=0;" edge="1" parent="1">
          <mxGeometry width="50" height="50" relative="1" as="geometry">
            <mxPoint x="420" y="560" as="sourcePoint" />
            <mxPoint x="440" y="560" as="targetPoint" />
          </mxGeometry>
        </mxCell>
        <mxCell id="C4me2KuEJBU7en0Y0sO0-187" value="" style="endArrow=none;html=1;rounded=0;" edge="1" parent="1">
          <mxGeometry width="50" height="50" relative="1" as="geometry">
            <mxPoint x="440" y="600" as="sourcePoint" />
            <mxPoint x="440" y="560" as="targetPoint" />
          </mxGeometry>
        </mxCell>
        <mxCell id="C4me2KuEJBU7en0Y0sO0-188" value="" style="endArrow=none;html=1;rounded=0;" edge="1" parent="1">
          <mxGeometry width="50" height="50" relative="1" as="geometry">
            <mxPoint x="440" y="600" as="sourcePoint" />
            <mxPoint x="460" y="600" as="targetPoint" />
          </mxGeometry>
        </mxCell>
        <mxCell id="C4me2KuEJBU7en0Y0sO0-189" value="" style="endArrow=none;html=1;rounded=0;" edge="1" parent="1">
          <mxGeometry width="50" height="50" relative="1" as="geometry">
            <mxPoint x="460" y="560" as="sourcePoint" />
            <mxPoint x="460" y="600" as="targetPoint" />
          </mxGeometry>
        </mxCell>
        <mxCell id="C4me2KuEJBU7en0Y0sO0-190" value="" style="endArrow=none;html=1;rounded=0;" edge="1" parent="1">
          <mxGeometry width="50" height="50" relative="1" as="geometry">
            <mxPoint x="460" y="560" as="sourcePoint" />
            <mxPoint x="480" y="560" as="targetPoint" />
          </mxGeometry>
        </mxCell>
        <mxCell id="C4me2KuEJBU7en0Y0sO0-191" value="" style="endArrow=none;html=1;rounded=0;" edge="1" parent="1">
          <mxGeometry width="50" height="50" relative="1" as="geometry">
            <mxPoint x="480" y="520" as="sourcePoint" />
            <mxPoint x="480" y="560" as="targetPoint" />
          </mxGeometry>
        </mxCell>
        <mxCell id="C4me2KuEJBU7en0Y0sO0-192" value="" style="endArrow=none;html=1;rounded=0;" edge="1" parent="1">
          <mxGeometry width="50" height="50" relative="1" as="geometry">
            <mxPoint x="500" y="520" as="sourcePoint" />
            <mxPoint x="480" y="520" as="targetPoint" />
          </mxGeometry>
        </mxCell>
        <mxCell id="C4me2KuEJBU7en0Y0sO0-193" value="" style="endArrow=none;html=1;rounded=0;" edge="1" parent="1">
          <mxGeometry width="50" height="50" relative="1" as="geometry">
            <mxPoint x="500" y="520" as="sourcePoint" />
            <mxPoint x="500" y="560" as="targetPoint" />
          </mxGeometry>
        </mxCell>
        <mxCell id="C4me2KuEJBU7en0Y0sO0-194" value="" style="endArrow=none;html=1;rounded=0;" edge="1" parent="1">
          <mxGeometry width="50" height="50" relative="1" as="geometry">
            <mxPoint x="520" y="560" as="sourcePoint" />
            <mxPoint x="500" y="560" as="targetPoint" />
          </mxGeometry>
        </mxCell>
        <mxCell id="C4me2KuEJBU7en0Y0sO0-195" value="" style="endArrow=none;html=1;rounded=0;" edge="1" parent="1">
          <mxGeometry width="50" height="50" relative="1" as="geometry">
            <mxPoint x="520" y="560" as="sourcePoint" />
            <mxPoint x="520" y="520" as="targetPoint" />
          </mxGeometry>
        </mxCell>
        <mxCell id="C4me2KuEJBU7en0Y0sO0-196" value="" style="endArrow=none;html=1;rounded=0;" edge="1" parent="1">
          <mxGeometry width="50" height="50" relative="1" as="geometry">
            <mxPoint x="520" y="520" as="sourcePoint" />
            <mxPoint x="540" y="520" as="targetPoint" />
          </mxGeometry>
        </mxCell>
        <mxCell id="C4me2KuEJBU7en0Y0sO0-197" value="" style="endArrow=none;html=1;rounded=0;" edge="1" parent="1">
          <mxGeometry width="50" height="50" relative="1" as="geometry">
            <mxPoint x="540" y="560" as="sourcePoint" />
            <mxPoint x="540" y="520" as="targetPoint" />
          </mxGeometry>
        </mxCell>
        <mxCell id="C4me2KuEJBU7en0Y0sO0-198" value="" style="endArrow=none;html=1;rounded=0;" edge="1" parent="1">
          <mxGeometry width="50" height="50" relative="1" as="geometry">
            <mxPoint x="560" y="560" as="sourcePoint" />
            <mxPoint x="540" y="560" as="targetPoint" />
          </mxGeometry>
        </mxCell>
        <mxCell id="C4me2KuEJBU7en0Y0sO0-199" value="" style="endArrow=none;html=1;rounded=0;" edge="1" parent="1">
          <mxGeometry width="50" height="50" relative="1" as="geometry">
            <mxPoint x="560" y="520" as="sourcePoint" />
            <mxPoint x="560" y="560" as="targetPoint" />
          </mxGeometry>
        </mxCell>
        <mxCell id="C4me2KuEJBU7en0Y0sO0-200" value="" style="endArrow=none;html=1;rounded=0;" edge="1" parent="1">
          <mxGeometry width="50" height="50" relative="1" as="geometry">
            <mxPoint x="580" y="520" as="sourcePoint" />
            <mxPoint x="560" y="520" as="targetPoint" />
          </mxGeometry>
        </mxCell>
        <mxCell id="C4me2KuEJBU7en0Y0sO0-201" value="" style="endArrow=none;html=1;rounded=0;" edge="1" parent="1">
          <mxGeometry width="50" height="50" relative="1" as="geometry">
            <mxPoint x="580" y="560" as="sourcePoint" />
            <mxPoint x="580" y="520" as="targetPoint" />
          </mxGeometry>
        </mxCell>
        <mxCell id="C4me2KuEJBU7en0Y0sO0-202" value="" style="endArrow=none;html=1;rounded=0;" edge="1" parent="1">
          <mxGeometry width="50" height="50" relative="1" as="geometry">
            <mxPoint x="600" y="560" as="sourcePoint" />
            <mxPoint x="580" y="560" as="targetPoint" />
          </mxGeometry>
        </mxCell>
        <mxCell id="C4me2KuEJBU7en0Y0sO0-203" value="" style="endArrow=none;html=1;rounded=0;" edge="1" parent="1">
          <mxGeometry width="50" height="50" relative="1" as="geometry">
            <mxPoint x="600" y="520" as="sourcePoint" />
            <mxPoint x="600" y="560" as="targetPoint" />
          </mxGeometry>
        </mxCell>
        <mxCell id="C4me2KuEJBU7en0Y0sO0-204" value="" style="endArrow=none;html=1;rounded=0;" edge="1" parent="1">
          <mxGeometry width="50" height="50" relative="1" as="geometry">
            <mxPoint x="600" y="520" as="sourcePoint" />
            <mxPoint x="620" y="520" as="targetPoint" />
          </mxGeometry>
        </mxCell>
        <mxCell id="C4me2KuEJBU7en0Y0sO0-205" value="" style="endArrow=none;html=1;rounded=0;" edge="1" parent="1">
          <mxGeometry width="50" height="50" relative="1" as="geometry">
            <mxPoint x="620" y="560" as="sourcePoint" />
            <mxPoint x="620" y="520" as="targetPoint" />
          </mxGeometry>
        </mxCell>
        <mxCell id="C4me2KuEJBU7en0Y0sO0-206" value="" style="endArrow=none;html=1;rounded=0;" edge="1" parent="1">
          <mxGeometry width="50" height="50" relative="1" as="geometry">
            <mxPoint x="640" y="560" as="sourcePoint" />
            <mxPoint x="620" y="560" as="targetPoint" />
          </mxGeometry>
        </mxCell>
        <mxCell id="C4me2KuEJBU7en0Y0sO0-207" value="" style="endArrow=none;html=1;rounded=0;" edge="1" parent="1">
          <mxGeometry width="50" height="50" relative="1" as="geometry">
            <mxPoint x="640" y="600" as="sourcePoint" />
            <mxPoint x="640" y="560" as="targetPoint" />
          </mxGeometry>
        </mxCell>
        <mxCell id="C4me2KuEJBU7en0Y0sO0-208" value="" style="endArrow=none;html=1;rounded=0;" edge="1" parent="1">
          <mxGeometry width="50" height="50" relative="1" as="geometry">
            <mxPoint x="660" y="600" as="sourcePoint" />
            <mxPoint x="640" y="600" as="targetPoint" />
          </mxGeometry>
        </mxCell>
        <mxCell id="C4me2KuEJBU7en0Y0sO0-209" value="" style="endArrow=none;html=1;rounded=0;" edge="1" parent="1">
          <mxGeometry width="50" height="50" relative="1" as="geometry">
            <mxPoint x="660" y="600" as="sourcePoint" />
            <mxPoint x="660" y="560" as="targetPoint" />
          </mxGeometry>
        </mxCell>
        <mxCell id="C4me2KuEJBU7en0Y0sO0-210" value="" style="endArrow=none;html=1;rounded=0;" edge="1" parent="1">
          <mxGeometry width="50" height="50" relative="1" as="geometry">
            <mxPoint x="660" y="560" as="sourcePoint" />
            <mxPoint x="680" y="560" as="targetPoint" />
          </mxGeometry>
        </mxCell>
        <mxCell id="C4me2KuEJBU7en0Y0sO0-211" value="" style="endArrow=none;html=1;rounded=0;" edge="1" parent="1">
          <mxGeometry width="50" height="50" relative="1" as="geometry">
            <mxPoint x="680" y="560" as="sourcePoint" />
            <mxPoint x="680" y="600" as="targetPoint" />
          </mxGeometry>
        </mxCell>
        <mxCell id="C4me2KuEJBU7en0Y0sO0-212" value="" style="endArrow=none;html=1;rounded=0;" edge="1" parent="1">
          <mxGeometry width="50" height="50" relative="1" as="geometry">
            <mxPoint x="680" y="600" as="sourcePoint" />
            <mxPoint x="700" y="600" as="targetPoint" />
          </mxGeometry>
        </mxCell>
        <mxCell id="C4me2KuEJBU7en0Y0sO0-213" value="" style="endArrow=none;html=1;rounded=0;" edge="1" parent="1">
          <mxGeometry width="50" height="50" relative="1" as="geometry">
            <mxPoint x="700" y="560" as="sourcePoint" />
            <mxPoint x="700" y="600" as="targetPoint" />
          </mxGeometry>
        </mxCell>
        <mxCell id="C4me2KuEJBU7en0Y0sO0-214" value="" style="endArrow=none;html=1;rounded=0;" edge="1" parent="1">
          <mxGeometry width="50" height="50" relative="1" as="geometry">
            <mxPoint x="700" y="560" as="sourcePoint" />
            <mxPoint x="720" y="560" as="targetPoint" />
          </mxGeometry>
        </mxCell>
        <mxCell id="C4me2KuEJBU7en0Y0sO0-215" value="" style="endArrow=none;html=1;rounded=0;" edge="1" parent="1">
          <mxGeometry width="50" height="50" relative="1" as="geometry">
            <mxPoint x="720" y="560" as="sourcePoint" />
            <mxPoint x="720" y="600" as="targetPoint" />
          </mxGeometry>
        </mxCell>
        <mxCell id="C4me2KuEJBU7en0Y0sO0-216" value="" style="endArrow=none;html=1;rounded=0;" edge="1" parent="1">
          <mxGeometry width="50" height="50" relative="1" as="geometry">
            <mxPoint x="720" y="600" as="sourcePoint" />
            <mxPoint x="740" y="600" as="targetPoint" />
          </mxGeometry>
        </mxCell>
        <mxCell id="C4me2KuEJBU7en0Y0sO0-217" value="" style="endArrow=none;html=1;rounded=0;" edge="1" parent="1">
          <mxGeometry width="50" height="50" relative="1" as="geometry">
            <mxPoint x="740" y="600" as="sourcePoint" />
            <mxPoint x="740" y="560" as="targetPoint" />
          </mxGeometry>
        </mxCell>
        <mxCell id="C4me2KuEJBU7en0Y0sO0-218" value="" style="endArrow=none;html=1;rounded=0;" edge="1" parent="1">
          <mxGeometry width="50" height="50" relative="1" as="geometry">
            <mxPoint x="740" y="560" as="sourcePoint" />
            <mxPoint x="760" y="560" as="targetPoint" />
          </mxGeometry>
        </mxCell>
        <mxCell id="C4me2KuEJBU7en0Y0sO0-219" value="" style="endArrow=none;html=1;rounded=0;" edge="1" parent="1">
          <mxGeometry width="50" height="50" relative="1" as="geometry">
            <mxPoint x="760" y="600" as="sourcePoint" />
            <mxPoint x="760" y="560" as="targetPoint" />
          </mxGeometry>
        </mxCell>
        <mxCell id="C4me2KuEJBU7en0Y0sO0-220" value="" style="endArrow=none;html=1;rounded=0;" edge="1" parent="1">
          <mxGeometry width="50" height="50" relative="1" as="geometry">
            <mxPoint x="780" y="600" as="sourcePoint" />
            <mxPoint x="760" y="600" as="targetPoint" />
          </mxGeometry>
        </mxCell>
        <mxCell id="C4me2KuEJBU7en0Y0sO0-221" value="" style="endArrow=none;html=1;rounded=0;" edge="1" parent="1">
          <mxGeometry width="50" height="50" relative="1" as="geometry">
            <mxPoint x="780" y="560" as="sourcePoint" />
            <mxPoint x="780" y="600" as="targetPoint" />
          </mxGeometry>
        </mxCell>
        <mxCell id="C4me2KuEJBU7en0Y0sO0-222" value="" style="endArrow=none;html=1;rounded=0;" edge="1" parent="1">
          <mxGeometry width="50" height="50" relative="1" as="geometry">
            <mxPoint x="800" y="560" as="sourcePoint" />
            <mxPoint x="780" y="560" as="targetPoint" />
          </mxGeometry>
        </mxCell>
        <mxCell id="C4me2KuEJBU7en0Y0sO0-223" value="" style="endArrow=none;html=1;rounded=0;" edge="1" parent="1">
          <mxGeometry width="50" height="50" relative="1" as="geometry">
            <mxPoint x="800" y="560" as="sourcePoint" />
            <mxPoint x="800" y="600" as="targetPoint" />
          </mxGeometry>
        </mxCell>
        <mxCell id="C4me2KuEJBU7en0Y0sO0-224" value="" style="endArrow=none;html=1;rounded=0;" edge="1" parent="1">
          <mxGeometry width="50" height="50" relative="1" as="geometry">
            <mxPoint x="820" y="600" as="sourcePoint" />
            <mxPoint x="800" y="600" as="targetPoint" />
          </mxGeometry>
        </mxCell>
        <mxCell id="C4me2KuEJBU7en0Y0sO0-225" value="" style="endArrow=none;html=1;rounded=0;" edge="1" parent="1">
          <mxGeometry width="50" height="50" relative="1" as="geometry">
            <mxPoint x="820" y="560" as="sourcePoint" />
            <mxPoint x="820" y="600" as="targetPoint" />
          </mxGeometry>
        </mxCell>
        <mxCell id="C4me2KuEJBU7en0Y0sO0-226" value="" style="endArrow=none;html=1;rounded=0;" edge="1" parent="1">
          <mxGeometry width="50" height="50" relative="1" as="geometry">
            <mxPoint x="840" y="560" as="sourcePoint" />
            <mxPoint x="820" y="560" as="targetPoint" />
          </mxGeometry>
        </mxCell>
        <mxCell id="C4me2KuEJBU7en0Y0sO0-227" value="" style="endArrow=none;html=1;rounded=0;" edge="1" parent="1">
          <mxGeometry width="50" height="50" relative="1" as="geometry">
            <mxPoint x="840" y="560" as="sourcePoint" />
            <mxPoint x="840" y="520" as="targetPoint" />
          </mxGeometry>
        </mxCell>
        <mxCell id="C4me2KuEJBU7en0Y0sO0-228" value="" style="endArrow=none;html=1;rounded=0;" edge="1" parent="1">
          <mxGeometry width="50" height="50" relative="1" as="geometry">
            <mxPoint x="840" y="520" as="sourcePoint" />
            <mxPoint x="860" y="520" as="targetPoint" />
          </mxGeometry>
        </mxCell>
        <mxCell id="C4me2KuEJBU7en0Y0sO0-229" value="" style="endArrow=none;html=1;rounded=0;" edge="1" parent="1">
          <mxGeometry width="50" height="50" relative="1" as="geometry">
            <mxPoint x="860" y="520" as="sourcePoint" />
            <mxPoint x="860" y="560" as="targetPoint" />
          </mxGeometry>
        </mxCell>
        <mxCell id="C4me2KuEJBU7en0Y0sO0-230" value="" style="endArrow=none;html=1;rounded=0;" edge="1" parent="1">
          <mxGeometry width="50" height="50" relative="1" as="geometry">
            <mxPoint x="880" y="560" as="sourcePoint" />
            <mxPoint x="860" y="560" as="targetPoint" />
          </mxGeometry>
        </mxCell>
        <mxCell id="C4me2KuEJBU7en0Y0sO0-231" value="" style="endArrow=none;html=1;rounded=0;" edge="1" parent="1">
          <mxGeometry width="50" height="50" relative="1" as="geometry">
            <mxPoint x="880" y="520" as="sourcePoint" />
            <mxPoint x="880" y="560" as="targetPoint" />
          </mxGeometry>
        </mxCell>
        <mxCell id="C4me2KuEJBU7en0Y0sO0-232" value="" style="endArrow=none;html=1;rounded=0;" edge="1" parent="1">
          <mxGeometry width="50" height="50" relative="1" as="geometry">
            <mxPoint x="900" y="520" as="sourcePoint" />
            <mxPoint x="880" y="520" as="targetPoint" />
          </mxGeometry>
        </mxCell>
        <mxCell id="C4me2KuEJBU7en0Y0sO0-233" value="" style="endArrow=none;html=1;rounded=0;" edge="1" parent="1">
          <mxGeometry width="50" height="50" relative="1" as="geometry">
            <mxPoint x="900" y="560" as="sourcePoint" />
            <mxPoint x="900" y="520" as="targetPoint" />
          </mxGeometry>
        </mxCell>
        <mxCell id="C4me2KuEJBU7en0Y0sO0-234" value="" style="endArrow=none;html=1;rounded=0;" edge="1" parent="1">
          <mxGeometry width="50" height="50" relative="1" as="geometry">
            <mxPoint x="920" y="560" as="sourcePoint" />
            <mxPoint x="900" y="560" as="targetPoint" />
          </mxGeometry>
        </mxCell>
        <mxCell id="C4me2KuEJBU7en0Y0sO0-235" value="" style="endArrow=none;html=1;rounded=0;" edge="1" parent="1">
          <mxGeometry width="50" height="50" relative="1" as="geometry">
            <mxPoint x="920" y="560" as="sourcePoint" />
            <mxPoint x="920" y="600" as="targetPoint" />
          </mxGeometry>
        </mxCell>
        <mxCell id="C4me2KuEJBU7en0Y0sO0-236" value="" style="endArrow=none;html=1;rounded=0;" edge="1" parent="1">
          <mxGeometry width="50" height="50" relative="1" as="geometry">
            <mxPoint x="940" y="600" as="sourcePoint" />
            <mxPoint x="920" y="600" as="targetPoint" />
          </mxGeometry>
        </mxCell>
        <mxCell id="C4me2KuEJBU7en0Y0sO0-237" value="" style="endArrow=none;html=1;rounded=0;" edge="1" parent="1">
          <mxGeometry width="50" height="50" relative="1" as="geometry">
            <mxPoint x="940" y="560" as="sourcePoint" />
            <mxPoint x="940" y="600" as="targetPoint" />
          </mxGeometry>
        </mxCell>
        <mxCell id="C4me2KuEJBU7en0Y0sO0-238" value="" style="endArrow=none;html=1;rounded=0;" edge="1" parent="1">
          <mxGeometry width="50" height="50" relative="1" as="geometry">
            <mxPoint x="960" y="560" as="sourcePoint" />
            <mxPoint x="940" y="560" as="targetPoint" />
          </mxGeometry>
        </mxCell>
        <mxCell id="C4me2KuEJBU7en0Y0sO0-239" value="" style="endArrow=none;html=1;rounded=0;" edge="1" parent="1">
          <mxGeometry width="50" height="50" relative="1" as="geometry">
            <mxPoint x="960" y="520" as="sourcePoint" />
            <mxPoint x="960" y="560" as="targetPoint" />
          </mxGeometry>
        </mxCell>
        <mxCell id="C4me2KuEJBU7en0Y0sO0-240" value="" style="endArrow=none;html=1;rounded=0;" edge="1" parent="1">
          <mxGeometry width="50" height="50" relative="1" as="geometry">
            <mxPoint x="980" y="520" as="sourcePoint" />
            <mxPoint x="960" y="520" as="targetPoint" />
          </mxGeometry>
        </mxCell>
        <mxCell id="C4me2KuEJBU7en0Y0sO0-241" value="" style="endArrow=none;html=1;rounded=0;" edge="1" parent="1">
          <mxGeometry width="50" height="50" relative="1" as="geometry">
            <mxPoint x="980" y="520" as="sourcePoint" />
            <mxPoint x="980" y="560" as="targetPoint" />
          </mxGeometry>
        </mxCell>
        <mxCell id="C4me2KuEJBU7en0Y0sO0-242" value="" style="endArrow=none;html=1;rounded=0;" edge="1" parent="1">
          <mxGeometry width="50" height="50" relative="1" as="geometry">
            <mxPoint x="1000" y="560" as="sourcePoint" />
            <mxPoint x="980" y="560" as="targetPoint" />
          </mxGeometry>
        </mxCell>
        <mxCell id="C4me2KuEJBU7en0Y0sO0-243" value="" style="endArrow=none;html=1;rounded=0;" edge="1" parent="1">
          <mxGeometry width="50" height="50" relative="1" as="geometry">
            <mxPoint x="1000" y="600" as="sourcePoint" />
            <mxPoint x="1000" y="560" as="targetPoint" />
          </mxGeometry>
        </mxCell>
        <mxCell id="C4me2KuEJBU7en0Y0sO0-244" value="" style="endArrow=none;html=1;rounded=0;" edge="1" parent="1">
          <mxGeometry width="50" height="50" relative="1" as="geometry">
            <mxPoint x="1020" y="600" as="sourcePoint" />
            <mxPoint x="1000" y="600" as="targetPoint" />
          </mxGeometry>
        </mxCell>
        <mxCell id="C4me2KuEJBU7en0Y0sO0-245" value="" style="endArrow=none;html=1;rounded=0;" edge="1" parent="1">
          <mxGeometry width="50" height="50" relative="1" as="geometry">
            <mxPoint x="1020" y="560" as="sourcePoint" />
            <mxPoint x="1020" y="600" as="targetPoint" />
          </mxGeometry>
        </mxCell>
        <mxCell id="C4me2KuEJBU7en0Y0sO0-246" value="" style="endArrow=none;html=1;rounded=0;" edge="1" parent="1">
          <mxGeometry width="50" height="50" relative="1" as="geometry">
            <mxPoint x="1040" y="560" as="sourcePoint" />
            <mxPoint x="1020" y="560" as="targetPoint" />
          </mxGeometry>
        </mxCell>
        <mxCell id="C4me2KuEJBU7en0Y0sO0-247" value="" style="endArrow=none;html=1;rounded=0;" edge="1" parent="1">
          <mxGeometry width="50" height="50" relative="1" as="geometry">
            <mxPoint x="1040" y="600" as="sourcePoint" />
            <mxPoint x="1040" y="560" as="targetPoint" />
          </mxGeometry>
        </mxCell>
        <mxCell id="C4me2KuEJBU7en0Y0sO0-248" value="" style="endArrow=none;html=1;rounded=0;" edge="1" parent="1">
          <mxGeometry width="50" height="50" relative="1" as="geometry">
            <mxPoint x="1060" y="600" as="sourcePoint" />
            <mxPoint x="1040" y="600" as="targetPoint" />
          </mxGeometry>
        </mxCell>
        <mxCell id="C4me2KuEJBU7en0Y0sO0-249" value="" style="endArrow=none;html=1;rounded=0;" edge="1" parent="1">
          <mxGeometry width="50" height="50" relative="1" as="geometry">
            <mxPoint x="1060" y="560" as="sourcePoint" />
            <mxPoint x="1060" y="600" as="targetPoint" />
          </mxGeometry>
        </mxCell>
        <mxCell id="C4me2KuEJBU7en0Y0sO0-250" value="" style="endArrow=none;html=1;rounded=0;" edge="1" parent="1">
          <mxGeometry width="50" height="50" relative="1" as="geometry">
            <mxPoint x="1080" y="560" as="sourcePoint" />
            <mxPoint x="1060" y="560" as="targetPoint" />
          </mxGeometry>
        </mxCell>
        <mxCell id="C4me2KuEJBU7en0Y0sO0-251" value="" style="endArrow=none;html=1;rounded=0;" edge="1" parent="1">
          <mxGeometry width="50" height="50" relative="1" as="geometry">
            <mxPoint x="1080" y="560" as="sourcePoint" />
            <mxPoint x="1080" y="600" as="targetPoint" />
          </mxGeometry>
        </mxCell>
        <mxCell id="C4me2KuEJBU7en0Y0sO0-252" value="" style="endArrow=none;html=1;rounded=0;" edge="1" parent="1">
          <mxGeometry width="50" height="50" relative="1" as="geometry">
            <mxPoint x="1100" y="600" as="sourcePoint" />
            <mxPoint x="1080" y="600" as="targetPoint" />
          </mxGeometry>
        </mxCell>
        <mxCell id="C4me2KuEJBU7en0Y0sO0-253" value="" style="endArrow=none;html=1;rounded=0;" edge="1" parent="1">
          <mxGeometry width="50" height="50" relative="1" as="geometry">
            <mxPoint x="1100" y="560" as="sourcePoint" />
            <mxPoint x="1100" y="600" as="targetPoint" />
          </mxGeometry>
        </mxCell>
        <mxCell id="C4me2KuEJBU7en0Y0sO0-254" value="" style="endArrow=none;html=1;rounded=0;" edge="1" parent="1">
          <mxGeometry width="50" height="50" relative="1" as="geometry">
            <mxPoint x="1120" y="560" as="sourcePoint" />
            <mxPoint x="1100" y="560" as="targetPoint" />
          </mxGeometry>
        </mxCell>
        <mxCell id="C4me2KuEJBU7en0Y0sO0-255" value="" style="endArrow=none;html=1;rounded=0;" edge="1" parent="1">
          <mxGeometry width="50" height="50" relative="1" as="geometry">
            <mxPoint x="1120" y="560" as="sourcePoint" />
            <mxPoint x="1120" y="600" as="targetPoint" />
          </mxGeometry>
        </mxCell>
        <mxCell id="C4me2KuEJBU7en0Y0sO0-256" value="" style="endArrow=none;html=1;rounded=0;" edge="1" parent="1">
          <mxGeometry width="50" height="50" relative="1" as="geometry">
            <mxPoint x="1140" y="600" as="sourcePoint" />
            <mxPoint x="1120" y="600" as="targetPoint" />
          </mxGeometry>
        </mxCell>
        <mxCell id="C4me2KuEJBU7en0Y0sO0-257" value="" style="endArrow=none;html=1;rounded=0;" edge="1" parent="1">
          <mxGeometry width="50" height="50" relative="1" as="geometry">
            <mxPoint x="1140" y="560" as="sourcePoint" />
            <mxPoint x="1140" y="600" as="targetPoint" />
          </mxGeometry>
        </mxCell>
        <mxCell id="C4me2KuEJBU7en0Y0sO0-258" value="" style="endArrow=none;html=1;rounded=0;" edge="1" parent="1">
          <mxGeometry width="50" height="50" relative="1" as="geometry">
            <mxPoint x="1160" y="560" as="sourcePoint" />
            <mxPoint x="1140" y="560" as="targetPoint" />
          </mxGeometry>
        </mxCell>
        <mxCell id="C4me2KuEJBU7en0Y0sO0-259" value="" style="endArrow=none;html=1;rounded=0;" edge="1" parent="1">
          <mxGeometry width="50" height="50" relative="1" as="geometry">
            <mxPoint x="1160" y="560" as="sourcePoint" />
            <mxPoint x="1160" y="520" as="targetPoint" />
          </mxGeometry>
        </mxCell>
        <mxCell id="C4me2KuEJBU7en0Y0sO0-260" value="" style="endArrow=none;html=1;rounded=0;" edge="1" parent="1">
          <mxGeometry width="50" height="50" relative="1" as="geometry">
            <mxPoint x="1180" y="520" as="sourcePoint" />
            <mxPoint x="1160" y="520" as="targetPoint" />
          </mxGeometry>
        </mxCell>
        <mxCell id="C4me2KuEJBU7en0Y0sO0-261" value="" style="endArrow=none;html=1;rounded=0;" edge="1" parent="1">
          <mxGeometry width="50" height="50" relative="1" as="geometry">
            <mxPoint x="1180" y="560" as="sourcePoint" />
            <mxPoint x="1180" y="520" as="targetPoint" />
          </mxGeometry>
        </mxCell>
        <mxCell id="C4me2KuEJBU7en0Y0sO0-262" value="" style="endArrow=none;html=1;rounded=0;" edge="1" parent="1">
          <mxGeometry width="50" height="50" relative="1" as="geometry">
            <mxPoint x="1200" y="560" as="sourcePoint" />
            <mxPoint x="1180" y="560" as="targetPoint" />
          </mxGeometry>
        </mxCell>
        <mxCell id="C4me2KuEJBU7en0Y0sO0-263" value="" style="endArrow=none;html=1;rounded=0;" edge="1" parent="1">
          <mxGeometry width="50" height="50" relative="1" as="geometry">
            <mxPoint x="1200" y="520" as="sourcePoint" />
            <mxPoint x="1200" y="560" as="targetPoint" />
          </mxGeometry>
        </mxCell>
        <mxCell id="C4me2KuEJBU7en0Y0sO0-264" value="" style="endArrow=none;html=1;rounded=0;" edge="1" parent="1">
          <mxGeometry width="50" height="50" relative="1" as="geometry">
            <mxPoint x="1220" y="520" as="sourcePoint" />
            <mxPoint x="1200" y="520" as="targetPoint" />
          </mxGeometry>
        </mxCell>
        <mxCell id="C4me2KuEJBU7en0Y0sO0-265" value="" style="endArrow=none;html=1;rounded=0;" edge="1" parent="1">
          <mxGeometry width="50" height="50" relative="1" as="geometry">
            <mxPoint x="1220" y="560" as="sourcePoint" />
            <mxPoint x="1220" y="520" as="targetPoint" />
          </mxGeometry>
        </mxCell>
        <mxCell id="C4me2KuEJBU7en0Y0sO0-266" value="" style="endArrow=none;html=1;rounded=0;" edge="1" parent="1">
          <mxGeometry width="50" height="50" relative="1" as="geometry">
            <mxPoint x="1240" y="560" as="sourcePoint" />
            <mxPoint x="1220" y="560" as="targetPoint" />
          </mxGeometry>
        </mxCell>
        <mxCell id="C4me2KuEJBU7en0Y0sO0-267" value="" style="endArrow=none;html=1;rounded=0;" edge="1" parent="1">
          <mxGeometry width="50" height="50" relative="1" as="geometry">
            <mxPoint x="1240" y="600" as="sourcePoint" />
            <mxPoint x="1240" y="560" as="targetPoint" />
          </mxGeometry>
        </mxCell>
        <mxCell id="C4me2KuEJBU7en0Y0sO0-268" value="" style="endArrow=none;html=1;rounded=0;" edge="1" parent="1">
          <mxGeometry width="50" height="50" relative="1" as="geometry">
            <mxPoint x="1260" y="600" as="sourcePoint" />
            <mxPoint x="1240" y="600" as="targetPoint" />
          </mxGeometry>
        </mxCell>
        <mxCell id="C4me2KuEJBU7en0Y0sO0-269" value="" style="endArrow=none;html=1;rounded=0;" edge="1" parent="1">
          <mxGeometry width="50" height="50" relative="1" as="geometry">
            <mxPoint x="1260" y="560" as="sourcePoint" />
            <mxPoint x="1260" y="600" as="targetPoint" />
          </mxGeometry>
        </mxCell>
        <mxCell id="C4me2KuEJBU7en0Y0sO0-270" value="" style="endArrow=none;html=1;rounded=0;" edge="1" parent="1">
          <mxGeometry width="50" height="50" relative="1" as="geometry">
            <mxPoint x="1280" y="560" as="sourcePoint" />
            <mxPoint x="1260" y="560" as="targetPoint" />
          </mxGeometry>
        </mxCell>
        <mxCell id="C4me2KuEJBU7en0Y0sO0-271" value="" style="endArrow=none;html=1;rounded=0;" edge="1" parent="1">
          <mxGeometry width="50" height="50" relative="1" as="geometry">
            <mxPoint x="1280" y="600" as="sourcePoint" />
            <mxPoint x="1280" y="560" as="targetPoint" />
          </mxGeometry>
        </mxCell>
        <mxCell id="C4me2KuEJBU7en0Y0sO0-272" value="" style="endArrow=none;html=1;rounded=0;" edge="1" parent="1">
          <mxGeometry width="50" height="50" relative="1" as="geometry">
            <mxPoint x="1300" y="600" as="sourcePoint" />
            <mxPoint x="1280" y="600" as="targetPoint" />
          </mxGeometry>
        </mxCell>
        <mxCell id="C4me2KuEJBU7en0Y0sO0-273" value="" style="endArrow=none;html=1;rounded=0;" edge="1" parent="1">
          <mxGeometry width="50" height="50" relative="1" as="geometry">
            <mxPoint x="1300" y="560" as="sourcePoint" />
            <mxPoint x="1300" y="600" as="targetPoint" />
          </mxGeometry>
        </mxCell>
        <mxCell id="C4me2KuEJBU7en0Y0sO0-274" value="" style="endArrow=none;html=1;rounded=0;" edge="1" parent="1">
          <mxGeometry width="50" height="50" relative="1" as="geometry">
            <mxPoint x="1320" y="560" as="sourcePoint" />
            <mxPoint x="1300" y="560" as="targetPoint" />
          </mxGeometry>
        </mxCell>
        <mxCell id="C4me2KuEJBU7en0Y0sO0-275" value="" style="endArrow=none;html=1;rounded=0;" edge="1" parent="1">
          <mxGeometry width="50" height="50" relative="1" as="geometry">
            <mxPoint x="1320" y="600" as="sourcePoint" />
            <mxPoint x="1320" y="560" as="targetPoint" />
          </mxGeometry>
        </mxCell>
        <mxCell id="C4me2KuEJBU7en0Y0sO0-276" value="" style="endArrow=none;html=1;rounded=0;" edge="1" parent="1">
          <mxGeometry width="50" height="50" relative="1" as="geometry">
            <mxPoint x="1340" y="600" as="sourcePoint" />
            <mxPoint x="1320" y="600" as="targetPoint" />
          </mxGeometry>
        </mxCell>
        <mxCell id="C4me2KuEJBU7en0Y0sO0-277" value="" style="endArrow=none;html=1;rounded=0;" edge="1" parent="1">
          <mxGeometry width="50" height="50" relative="1" as="geometry">
            <mxPoint x="1340" y="560" as="sourcePoint" />
            <mxPoint x="1340" y="600" as="targetPoint" />
          </mxGeometry>
        </mxCell>
        <mxCell id="C4me2KuEJBU7en0Y0sO0-278" value="" style="endArrow=none;html=1;rounded=0;" edge="1" parent="1">
          <mxGeometry width="50" height="50" relative="1" as="geometry">
            <mxPoint x="1360" y="560" as="sourcePoint" />
            <mxPoint x="1340" y="560" as="targetPoint" />
          </mxGeometry>
        </mxCell>
        <mxCell id="C4me2KuEJBU7en0Y0sO0-279" value="" style="endArrow=none;html=1;rounded=0;" edge="1" parent="1">
          <mxGeometry width="50" height="50" relative="1" as="geometry">
            <mxPoint x="1360" y="520" as="sourcePoint" />
            <mxPoint x="1360" y="560" as="targetPoint" />
          </mxGeometry>
        </mxCell>
        <mxCell id="C4me2KuEJBU7en0Y0sO0-280" value="" style="endArrow=none;html=1;rounded=0;" edge="1" parent="1">
          <mxGeometry width="50" height="50" relative="1" as="geometry">
            <mxPoint x="1380" y="520" as="sourcePoint" />
            <mxPoint x="1360" y="520" as="targetPoint" />
          </mxGeometry>
        </mxCell>
        <mxCell id="C4me2KuEJBU7en0Y0sO0-281" value="" style="endArrow=none;html=1;rounded=0;" edge="1" parent="1">
          <mxGeometry width="50" height="50" relative="1" as="geometry">
            <mxPoint x="1380" y="560" as="sourcePoint" />
            <mxPoint x="1380" y="520" as="targetPoint" />
          </mxGeometry>
        </mxCell>
        <mxCell id="C4me2KuEJBU7en0Y0sO0-282" value="" style="endArrow=none;html=1;rounded=0;" edge="1" parent="1">
          <mxGeometry width="50" height="50" relative="1" as="geometry">
            <mxPoint x="1400" y="560" as="sourcePoint" />
            <mxPoint x="1380" y="560" as="targetPoint" />
          </mxGeometry>
        </mxCell>
        <mxCell id="C4me2KuEJBU7en0Y0sO0-283" value="" style="endArrow=none;html=1;rounded=0;" edge="1" parent="1">
          <mxGeometry width="50" height="50" relative="1" as="geometry">
            <mxPoint x="1400" y="600" as="sourcePoint" />
            <mxPoint x="1400" y="560" as="targetPoint" />
          </mxGeometry>
        </mxCell>
        <mxCell id="C4me2KuEJBU7en0Y0sO0-284" value="" style="endArrow=none;html=1;rounded=0;" edge="1" parent="1">
          <mxGeometry width="50" height="50" relative="1" as="geometry">
            <mxPoint x="1400" y="600" as="sourcePoint" />
            <mxPoint x="1420" y="600" as="targetPoint" />
          </mxGeometry>
        </mxCell>
        <mxCell id="C4me2KuEJBU7en0Y0sO0-285" value="" style="endArrow=none;html=1;rounded=0;" edge="1" parent="1">
          <mxGeometry width="50" height="50" relative="1" as="geometry">
            <mxPoint x="1420" y="560" as="sourcePoint" />
            <mxPoint x="1420" y="600" as="targetPoint" />
          </mxGeometry>
        </mxCell>
        <mxCell id="C4me2KuEJBU7en0Y0sO0-286" value="" style="endArrow=none;html=1;rounded=0;" edge="1" parent="1">
          <mxGeometry width="50" height="50" relative="1" as="geometry">
            <mxPoint x="1440" y="560" as="sourcePoint" />
            <mxPoint x="1420" y="560" as="targetPoint" />
          </mxGeometry>
        </mxCell>
        <mxCell id="C4me2KuEJBU7en0Y0sO0-287" value="" style="endArrow=none;html=1;rounded=0;" edge="1" parent="1">
          <mxGeometry width="50" height="50" relative="1" as="geometry">
            <mxPoint x="1440" y="600" as="sourcePoint" />
            <mxPoint x="1440" y="560" as="targetPoint" />
          </mxGeometry>
        </mxCell>
        <mxCell id="C4me2KuEJBU7en0Y0sO0-288" value="" style="endArrow=none;html=1;rounded=0;" edge="1" parent="1">
          <mxGeometry width="50" height="50" relative="1" as="geometry">
            <mxPoint x="1460" y="600" as="sourcePoint" />
            <mxPoint x="1440" y="600" as="targetPoint" />
          </mxGeometry>
        </mxCell>
        <mxCell id="C4me2KuEJBU7en0Y0sO0-289" value="" style="endArrow=none;html=1;rounded=0;" edge="1" parent="1">
          <mxGeometry width="50" height="50" relative="1" as="geometry">
            <mxPoint x="1460" y="560" as="sourcePoint" />
            <mxPoint x="1460" y="600" as="targetPoint" />
          </mxGeometry>
        </mxCell>
        <mxCell id="C4me2KuEJBU7en0Y0sO0-290" value="" style="endArrow=none;html=1;rounded=0;" edge="1" parent="1">
          <mxGeometry width="50" height="50" relative="1" as="geometry">
            <mxPoint x="1480" y="560" as="sourcePoint" />
            <mxPoint x="1460" y="560" as="targetPoint" />
          </mxGeometry>
        </mxCell>
        <mxCell id="C4me2KuEJBU7en0Y0sO0-291" value="&lt;font style=&quot;font-size: 18px;&quot;&gt;RZ&lt;/font&gt;" style="text;html=1;align=center;verticalAlign=middle;whiteSpace=wrap;rounded=0;" vertex="1" parent="1">
          <mxGeometry x="140" y="510" width="60" height="30" as="geometry" />
        </mxCell>
        <mxCell id="C4me2KuEJBU7en0Y0sO0-292" value="" style="endArrow=none;html=1;rounded=0;" edge="1" parent="1">
          <mxGeometry width="50" height="50" relative="1" as="geometry">
            <mxPoint x="200" y="640" as="sourcePoint" />
            <mxPoint x="240" y="640" as="targetPoint" />
          </mxGeometry>
        </mxCell>
        <mxCell id="C4me2KuEJBU7en0Y0sO0-293" value="" style="endArrow=none;html=1;rounded=0;" edge="1" parent="1">
          <mxGeometry width="50" height="50" relative="1" as="geometry">
            <mxPoint x="240" y="720" as="sourcePoint" />
            <mxPoint x="240" y="640" as="targetPoint" />
          </mxGeometry>
        </mxCell>
        <mxCell id="C4me2KuEJBU7en0Y0sO0-294" value="" style="endArrow=none;html=1;rounded=0;" edge="1" parent="1">
          <mxGeometry width="50" height="50" relative="1" as="geometry">
            <mxPoint x="240" y="720" as="sourcePoint" />
            <mxPoint x="280" y="720" as="targetPoint" />
          </mxGeometry>
        </mxCell>
        <mxCell id="C4me2KuEJBU7en0Y0sO0-295" value="" style="endArrow=none;html=1;rounded=0;" edge="1" parent="1">
          <mxGeometry width="50" height="50" relative="1" as="geometry">
            <mxPoint x="280" y="680" as="sourcePoint" />
            <mxPoint x="280" y="720" as="targetPoint" />
          </mxGeometry>
        </mxCell>
        <mxCell id="C4me2KuEJBU7en0Y0sO0-296" value="" style="endArrow=none;html=1;rounded=0;" edge="1" parent="1">
          <mxGeometry width="50" height="50" relative="1" as="geometry">
            <mxPoint x="280" y="680" as="sourcePoint" />
            <mxPoint x="480" y="680" as="targetPoint" />
          </mxGeometry>
        </mxCell>
        <mxCell id="C4me2KuEJBU7en0Y0sO0-297" value="" style="endArrow=none;html=1;rounded=0;" edge="1" parent="1">
          <mxGeometry width="50" height="50" relative="1" as="geometry">
            <mxPoint x="480" y="640" as="sourcePoint" />
            <mxPoint x="480" y="680" as="targetPoint" />
          </mxGeometry>
        </mxCell>
        <mxCell id="C4me2KuEJBU7en0Y0sO0-298" value="" style="endArrow=none;html=1;rounded=0;" edge="1" parent="1">
          <mxGeometry width="50" height="50" relative="1" as="geometry">
            <mxPoint x="480" y="640" as="sourcePoint" />
            <mxPoint x="520" y="640" as="targetPoint" />
          </mxGeometry>
        </mxCell>
        <mxCell id="C4me2KuEJBU7en0Y0sO0-299" value="" style="endArrow=none;html=1;rounded=0;" edge="1" parent="1">
          <mxGeometry width="50" height="50" relative="1" as="geometry">
            <mxPoint x="520" y="640" as="sourcePoint" />
            <mxPoint x="520" y="720" as="targetPoint" />
          </mxGeometry>
        </mxCell>
        <mxCell id="C4me2KuEJBU7en0Y0sO0-300" value="" style="endArrow=none;html=1;rounded=0;" edge="1" parent="1">
          <mxGeometry width="50" height="50" relative="1" as="geometry">
            <mxPoint x="520" y="720" as="sourcePoint" />
            <mxPoint x="560" y="720" as="targetPoint" />
          </mxGeometry>
        </mxCell>
        <mxCell id="C4me2KuEJBU7en0Y0sO0-301" value="" style="endArrow=none;html=1;rounded=0;" edge="1" parent="1">
          <mxGeometry width="50" height="50" relative="1" as="geometry">
            <mxPoint x="560" y="640" as="sourcePoint" />
            <mxPoint x="560" y="720" as="targetPoint" />
          </mxGeometry>
        </mxCell>
        <mxCell id="C4me2KuEJBU7en0Y0sO0-302" value="" style="endArrow=none;html=1;rounded=0;" edge="1" parent="1">
          <mxGeometry width="50" height="50" relative="1" as="geometry">
            <mxPoint x="560" y="640" as="sourcePoint" />
            <mxPoint x="600" y="640" as="targetPoint" />
          </mxGeometry>
        </mxCell>
        <mxCell id="C4me2KuEJBU7en0Y0sO0-303" value="" style="endArrow=none;html=1;rounded=0;" edge="1" parent="1">
          <mxGeometry width="50" height="50" relative="1" as="geometry">
            <mxPoint x="600" y="640" as="sourcePoint" />
            <mxPoint x="600" y="720" as="targetPoint" />
          </mxGeometry>
        </mxCell>
        <mxCell id="C4me2KuEJBU7en0Y0sO0-304" value="" style="endArrow=none;html=1;rounded=0;" edge="1" parent="1">
          <mxGeometry width="50" height="50" relative="1" as="geometry">
            <mxPoint x="600" y="720" as="sourcePoint" />
            <mxPoint x="640" y="720" as="targetPoint" />
          </mxGeometry>
        </mxCell>
        <mxCell id="C4me2KuEJBU7en0Y0sO0-305" value="" style="endArrow=none;html=1;rounded=0;" edge="1" parent="1">
          <mxGeometry width="50" height="50" relative="1" as="geometry">
            <mxPoint x="640" y="680" as="sourcePoint" />
            <mxPoint x="640" y="720" as="targetPoint" />
          </mxGeometry>
        </mxCell>
        <mxCell id="C4me2KuEJBU7en0Y0sO0-306" value="" style="endArrow=none;html=1;rounded=0;" edge="1" parent="1">
          <mxGeometry width="50" height="50" relative="1" as="geometry">
            <mxPoint x="640" y="680" as="sourcePoint" />
            <mxPoint x="840" y="680" as="targetPoint" />
          </mxGeometry>
        </mxCell>
        <mxCell id="C4me2KuEJBU7en0Y0sO0-307" value="" style="endArrow=none;html=1;rounded=0;" edge="1" parent="1">
          <mxGeometry width="50" height="50" relative="1" as="geometry">
            <mxPoint x="840" y="680" as="sourcePoint" />
            <mxPoint x="840" y="640" as="targetPoint" />
          </mxGeometry>
        </mxCell>
        <mxCell id="C4me2KuEJBU7en0Y0sO0-308" value="" style="endArrow=none;html=1;rounded=0;" edge="1" parent="1">
          <mxGeometry width="50" height="50" relative="1" as="geometry">
            <mxPoint x="880" y="640" as="sourcePoint" />
            <mxPoint x="840" y="640" as="targetPoint" />
          </mxGeometry>
        </mxCell>
        <mxCell id="C4me2KuEJBU7en0Y0sO0-309" value="" style="endArrow=none;html=1;rounded=0;" edge="1" parent="1">
          <mxGeometry width="50" height="50" relative="1" as="geometry">
            <mxPoint x="880" y="720" as="sourcePoint" />
            <mxPoint x="880" y="640" as="targetPoint" />
          </mxGeometry>
        </mxCell>
        <mxCell id="C4me2KuEJBU7en0Y0sO0-310" value="" style="endArrow=none;html=1;rounded=0;" edge="1" parent="1">
          <mxGeometry width="50" height="50" relative="1" as="geometry">
            <mxPoint x="920" y="720" as="sourcePoint" />
            <mxPoint x="880" y="720" as="targetPoint" />
          </mxGeometry>
        </mxCell>
        <mxCell id="C4me2KuEJBU7en0Y0sO0-311" value="" style="endArrow=none;html=1;rounded=0;" edge="1" parent="1">
          <mxGeometry width="50" height="50" relative="1" as="geometry">
            <mxPoint x="920" y="680" as="sourcePoint" />
            <mxPoint x="920" y="720" as="targetPoint" />
          </mxGeometry>
        </mxCell>
        <mxCell id="C4me2KuEJBU7en0Y0sO0-312" value="" style="endArrow=none;html=1;rounded=0;" edge="1" parent="1">
          <mxGeometry width="50" height="50" relative="1" as="geometry">
            <mxPoint x="960" y="680" as="sourcePoint" />
            <mxPoint x="920" y="680" as="targetPoint" />
          </mxGeometry>
        </mxCell>
        <mxCell id="C4me2KuEJBU7en0Y0sO0-313" value="" style="endArrow=none;html=1;rounded=0;" edge="1" parent="1">
          <mxGeometry width="50" height="50" relative="1" as="geometry">
            <mxPoint x="960" y="680" as="sourcePoint" />
            <mxPoint x="960" y="640" as="targetPoint" />
          </mxGeometry>
        </mxCell>
        <mxCell id="C4me2KuEJBU7en0Y0sO0-314" value="" style="endArrow=none;html=1;rounded=0;" edge="1" parent="1">
          <mxGeometry width="50" height="50" relative="1" as="geometry">
            <mxPoint x="1000" y="640" as="sourcePoint" />
            <mxPoint x="960" y="640" as="targetPoint" />
          </mxGeometry>
        </mxCell>
        <mxCell id="C4me2KuEJBU7en0Y0sO0-315" value="" style="endArrow=none;html=1;rounded=0;" edge="1" parent="1">
          <mxGeometry width="50" height="50" relative="1" as="geometry">
            <mxPoint x="1000" y="680" as="sourcePoint" />
            <mxPoint x="1000" y="640" as="targetPoint" />
          </mxGeometry>
        </mxCell>
        <mxCell id="C4me2KuEJBU7en0Y0sO0-316" value="" style="endArrow=none;html=1;rounded=0;" edge="1" parent="1">
          <mxGeometry width="50" height="50" relative="1" as="geometry">
            <mxPoint x="1000" y="680" as="sourcePoint" />
            <mxPoint x="1160" y="680" as="targetPoint" />
          </mxGeometry>
        </mxCell>
        <mxCell id="C4me2KuEJBU7en0Y0sO0-317" value="" style="endArrow=none;html=1;rounded=0;" edge="1" parent="1">
          <mxGeometry width="50" height="50" relative="1" as="geometry">
            <mxPoint x="1160" y="720" as="sourcePoint" />
            <mxPoint x="1160" y="680" as="targetPoint" />
          </mxGeometry>
        </mxCell>
        <mxCell id="C4me2KuEJBU7en0Y0sO0-318" value="" style="endArrow=none;html=1;rounded=0;" edge="1" parent="1">
          <mxGeometry width="50" height="50" relative="1" as="geometry">
            <mxPoint x="1200" y="720" as="sourcePoint" />
            <mxPoint x="1160" y="720" as="targetPoint" />
          </mxGeometry>
        </mxCell>
        <mxCell id="C4me2KuEJBU7en0Y0sO0-319" value="" style="endArrow=none;html=1;rounded=0;" edge="1" parent="1">
          <mxGeometry width="50" height="50" relative="1" as="geometry">
            <mxPoint x="1200" y="640" as="sourcePoint" />
            <mxPoint x="1200" y="720" as="targetPoint" />
          </mxGeometry>
        </mxCell>
        <mxCell id="C4me2KuEJBU7en0Y0sO0-320" value="" style="endArrow=none;html=1;rounded=0;" edge="1" parent="1">
          <mxGeometry width="50" height="50" relative="1" as="geometry">
            <mxPoint x="1200" y="640" as="sourcePoint" />
            <mxPoint x="1240" y="640" as="targetPoint" />
          </mxGeometry>
        </mxCell>
        <mxCell id="C4me2KuEJBU7en0Y0sO0-321" value="" style="endArrow=none;html=1;rounded=0;" edge="1" parent="1">
          <mxGeometry width="50" height="50" relative="1" as="geometry">
            <mxPoint x="1240" y="680" as="sourcePoint" />
            <mxPoint x="1240" y="640" as="targetPoint" />
          </mxGeometry>
        </mxCell>
        <mxCell id="C4me2KuEJBU7en0Y0sO0-322" value="" style="endArrow=none;html=1;rounded=0;" edge="1" parent="1">
          <mxGeometry width="50" height="50" relative="1" as="geometry">
            <mxPoint x="1360" y="680" as="sourcePoint" />
            <mxPoint x="1240" y="680" as="targetPoint" />
          </mxGeometry>
        </mxCell>
        <mxCell id="C4me2KuEJBU7en0Y0sO0-323" value="" style="endArrow=none;html=1;rounded=0;" edge="1" parent="1">
          <mxGeometry width="50" height="50" relative="1" as="geometry">
            <mxPoint x="1360" y="720" as="sourcePoint" />
            <mxPoint x="1360" y="680" as="targetPoint" />
          </mxGeometry>
        </mxCell>
        <mxCell id="C4me2KuEJBU7en0Y0sO0-324" value="" style="endArrow=none;html=1;rounded=0;" edge="1" parent="1">
          <mxGeometry width="50" height="50" relative="1" as="geometry">
            <mxPoint x="1400" y="720" as="sourcePoint" />
            <mxPoint x="1360" y="720" as="targetPoint" />
          </mxGeometry>
        </mxCell>
        <mxCell id="C4me2KuEJBU7en0Y0sO0-325" value="" style="endArrow=none;html=1;rounded=0;" edge="1" parent="1">
          <mxGeometry width="50" height="50" relative="1" as="geometry">
            <mxPoint x="1400" y="680" as="sourcePoint" />
            <mxPoint x="1400" y="720" as="targetPoint" />
          </mxGeometry>
        </mxCell>
        <mxCell id="C4me2KuEJBU7en0Y0sO0-326" value="" style="endArrow=none;html=1;rounded=0;" edge="1" parent="1">
          <mxGeometry width="50" height="50" relative="1" as="geometry">
            <mxPoint x="1480" y="680" as="sourcePoint" />
            <mxPoint x="1400" y="680" as="targetPoint" />
          </mxGeometry>
        </mxCell>
        <mxCell id="C4me2KuEJBU7en0Y0sO0-327" value="&lt;font style=&quot;font-size: 18px;&quot;&gt;AMI&lt;/font&gt;" style="text;html=1;align=center;verticalAlign=middle;whiteSpace=wrap;rounded=0;" vertex="1" parent="1">
          <mxGeometry x="140" y="620" width="60" height="30" as="geometry" />
        </mxCell>
        <mxCell id="C4me2KuEJBU7en0Y0sO0-328" value="" style="endArrow=none;html=1;rounded=0;exitX=1;exitY=0.25;exitDx=0;exitDy=0;" edge="1" parent="1" source="C4me2KuEJBU7en0Y0sO0-352">
          <mxGeometry width="50" height="50" relative="1" as="geometry">
            <mxPoint x="200" y="760" as="sourcePoint" />
            <mxPoint x="240" y="760" as="targetPoint" />
          </mxGeometry>
        </mxCell>
        <mxCell id="C4me2KuEJBU7en0Y0sO0-329" value="" style="endArrow=none;html=1;rounded=0;" edge="1" parent="1">
          <mxGeometry width="50" height="50" relative="1" as="geometry">
            <mxPoint x="240" y="760" as="sourcePoint" />
            <mxPoint x="240" y="840" as="targetPoint" />
          </mxGeometry>
        </mxCell>
        <mxCell id="C4me2KuEJBU7en0Y0sO0-330" value="" style="endArrow=none;html=1;rounded=0;" edge="1" parent="1">
          <mxGeometry width="50" height="50" relative="1" as="geometry">
            <mxPoint x="240" y="840" as="sourcePoint" />
            <mxPoint x="480" y="840" as="targetPoint" />
          </mxGeometry>
        </mxCell>
        <mxCell id="C4me2KuEJBU7en0Y0sO0-331" value="" style="endArrow=none;html=1;rounded=0;" edge="1" parent="1">
          <mxGeometry width="50" height="50" relative="1" as="geometry">
            <mxPoint x="480" y="760" as="sourcePoint" />
            <mxPoint x="480" y="840" as="targetPoint" />
          </mxGeometry>
        </mxCell>
        <mxCell id="C4me2KuEJBU7en0Y0sO0-332" value="" style="endArrow=none;html=1;rounded=0;" edge="1" parent="1">
          <mxGeometry width="50" height="50" relative="1" as="geometry">
            <mxPoint x="480" y="760" as="sourcePoint" />
            <mxPoint x="520" y="760" as="targetPoint" />
          </mxGeometry>
        </mxCell>
        <mxCell id="C4me2KuEJBU7en0Y0sO0-333" value="" style="endArrow=none;html=1;rounded=0;" edge="1" parent="1">
          <mxGeometry width="50" height="50" relative="1" as="geometry">
            <mxPoint x="520" y="760" as="sourcePoint" />
            <mxPoint x="520" y="840" as="targetPoint" />
          </mxGeometry>
        </mxCell>
        <mxCell id="C4me2KuEJBU7en0Y0sO0-334" value="" style="endArrow=none;html=1;rounded=0;" edge="1" parent="1">
          <mxGeometry width="50" height="50" relative="1" as="geometry">
            <mxPoint x="520" y="840" as="sourcePoint" />
            <mxPoint x="560" y="840" as="targetPoint" />
          </mxGeometry>
        </mxCell>
        <mxCell id="C4me2KuEJBU7en0Y0sO0-335" value="" style="endArrow=none;html=1;rounded=0;" edge="1" parent="1">
          <mxGeometry width="50" height="50" relative="1" as="geometry">
            <mxPoint x="560" y="760" as="sourcePoint" />
            <mxPoint x="560" y="840" as="targetPoint" />
          </mxGeometry>
        </mxCell>
        <mxCell id="C4me2KuEJBU7en0Y0sO0-336" value="" style="endArrow=none;html=1;rounded=0;" edge="1" parent="1">
          <mxGeometry width="50" height="50" relative="1" as="geometry">
            <mxPoint x="560" y="760" as="sourcePoint" />
            <mxPoint x="600" y="760" as="targetPoint" />
          </mxGeometry>
        </mxCell>
        <mxCell id="C4me2KuEJBU7en0Y0sO0-337" value="" style="endArrow=none;html=1;rounded=0;" edge="1" parent="1">
          <mxGeometry width="50" height="50" relative="1" as="geometry">
            <mxPoint x="600" y="760" as="sourcePoint" />
            <mxPoint x="600" y="840" as="targetPoint" />
          </mxGeometry>
        </mxCell>
        <mxCell id="C4me2KuEJBU7en0Y0sO0-338" value="" style="endArrow=none;html=1;rounded=0;" edge="1" parent="1">
          <mxGeometry width="50" height="50" relative="1" as="geometry">
            <mxPoint x="600" y="840" as="sourcePoint" />
            <mxPoint x="840" y="840" as="targetPoint" />
          </mxGeometry>
        </mxCell>
        <mxCell id="C4me2KuEJBU7en0Y0sO0-339" value="" style="endArrow=none;html=1;rounded=0;" edge="1" parent="1">
          <mxGeometry width="50" height="50" relative="1" as="geometry">
            <mxPoint x="840" y="840" as="sourcePoint" />
            <mxPoint x="840" y="760" as="targetPoint" />
          </mxGeometry>
        </mxCell>
        <mxCell id="C4me2KuEJBU7en0Y0sO0-340" value="" style="endArrow=none;html=1;rounded=0;" edge="1" parent="1">
          <mxGeometry width="50" height="50" relative="1" as="geometry">
            <mxPoint x="840" y="760" as="sourcePoint" />
            <mxPoint x="880" y="760" as="targetPoint" />
          </mxGeometry>
        </mxCell>
        <mxCell id="C4me2KuEJBU7en0Y0sO0-341" value="" style="endArrow=none;html=1;rounded=0;" edge="1" parent="1">
          <mxGeometry width="50" height="50" relative="1" as="geometry">
            <mxPoint x="880" y="760" as="sourcePoint" />
            <mxPoint x="880" y="840" as="targetPoint" />
          </mxGeometry>
        </mxCell>
        <mxCell id="C4me2KuEJBU7en0Y0sO0-342" value="" style="endArrow=none;html=1;rounded=0;" edge="1" parent="1">
          <mxGeometry width="50" height="50" relative="1" as="geometry">
            <mxPoint x="920" y="840" as="sourcePoint" />
            <mxPoint x="880" y="840" as="targetPoint" />
          </mxGeometry>
        </mxCell>
        <mxCell id="C4me2KuEJBU7en0Y0sO0-343" value="" style="endArrow=none;html=1;rounded=0;" edge="1" parent="1">
          <mxGeometry width="50" height="50" relative="1" as="geometry">
            <mxPoint x="960" y="840" as="sourcePoint" />
            <mxPoint x="920" y="840" as="targetPoint" />
          </mxGeometry>
        </mxCell>
        <mxCell id="C4me2KuEJBU7en0Y0sO0-344" value="" style="endArrow=none;html=1;rounded=0;" edge="1" parent="1">
          <mxGeometry width="50" height="50" relative="1" as="geometry">
            <mxPoint x="960" y="760" as="sourcePoint" />
            <mxPoint x="960" y="840" as="targetPoint" />
          </mxGeometry>
        </mxCell>
        <mxCell id="C4me2KuEJBU7en0Y0sO0-345" value="" style="endArrow=none;html=1;rounded=0;" edge="1" parent="1">
          <mxGeometry width="50" height="50" relative="1" as="geometry">
            <mxPoint x="1160" y="760" as="sourcePoint" />
            <mxPoint x="960" y="760" as="targetPoint" />
          </mxGeometry>
        </mxCell>
        <mxCell id="C4me2KuEJBU7en0Y0sO0-346" value="" style="endArrow=none;html=1;rounded=0;" edge="1" parent="1">
          <mxGeometry width="50" height="50" relative="1" as="geometry">
            <mxPoint x="1160" y="840" as="sourcePoint" />
            <mxPoint x="1160" y="760" as="targetPoint" />
          </mxGeometry>
        </mxCell>
        <mxCell id="C4me2KuEJBU7en0Y0sO0-347" value="" style="endArrow=none;html=1;rounded=0;" edge="1" parent="1">
          <mxGeometry width="50" height="50" relative="1" as="geometry">
            <mxPoint x="1200" y="840" as="sourcePoint" />
            <mxPoint x="1160" y="840" as="targetPoint" />
          </mxGeometry>
        </mxCell>
        <mxCell id="C4me2KuEJBU7en0Y0sO0-348" value="" style="endArrow=none;html=1;rounded=0;" edge="1" parent="1">
          <mxGeometry width="50" height="50" relative="1" as="geometry">
            <mxPoint x="1200" y="760" as="sourcePoint" />
            <mxPoint x="1200" y="840" as="targetPoint" />
          </mxGeometry>
        </mxCell>
        <mxCell id="C4me2KuEJBU7en0Y0sO0-349" value="" style="endArrow=none;html=1;rounded=0;" edge="1" parent="1">
          <mxGeometry width="50" height="50" relative="1" as="geometry">
            <mxPoint x="1360" y="760" as="sourcePoint" />
            <mxPoint x="1200" y="760" as="targetPoint" />
          </mxGeometry>
        </mxCell>
        <mxCell id="C4me2KuEJBU7en0Y0sO0-350" value="" style="endArrow=none;html=1;rounded=0;" edge="1" parent="1">
          <mxGeometry width="50" height="50" relative="1" as="geometry">
            <mxPoint x="1360" y="760" as="sourcePoint" />
            <mxPoint x="1360" y="840" as="targetPoint" />
          </mxGeometry>
        </mxCell>
        <mxCell id="C4me2KuEJBU7en0Y0sO0-351" value="" style="endArrow=none;html=1;rounded=0;" edge="1" parent="1">
          <mxGeometry width="50" height="50" relative="1" as="geometry">
            <mxPoint x="1480" y="840" as="sourcePoint" />
            <mxPoint x="1360" y="840" as="targetPoint" />
          </mxGeometry>
        </mxCell>
        <mxCell id="C4me2KuEJBU7en0Y0sO0-353" value="" style="endArrow=none;html=1;rounded=0;" edge="1" parent="1" target="C4me2KuEJBU7en0Y0sO0-352">
          <mxGeometry width="50" height="50" relative="1" as="geometry">
            <mxPoint x="200" y="760" as="sourcePoint" />
            <mxPoint x="240" y="760" as="targetPoint" />
          </mxGeometry>
        </mxCell>
        <mxCell id="C4me2KuEJBU7en0Y0sO0-352" value="&lt;font style=&quot;font-size: 18px;&quot;&gt;NRZI&lt;/font&gt;" style="text;html=1;align=center;verticalAlign=middle;whiteSpace=wrap;rounded=0;" vertex="1" parent="1">
          <mxGeometry x="140" y="752" width="60" height="30" as="geometry" />
        </mxCell>
        <mxCell id="C4me2KuEJBU7en0Y0sO0-355" value="" style="endArrow=none;html=1;rounded=0;" edge="1" parent="1">
          <mxGeometry width="50" height="50" relative="1" as="geometry">
            <mxPoint x="200" y="880" as="sourcePoint" />
            <mxPoint x="280" y="880" as="targetPoint" />
          </mxGeometry>
        </mxCell>
        <mxCell id="C4me2KuEJBU7en0Y0sO0-356" value="" style="endArrow=none;html=1;rounded=0;" edge="1" parent="1">
          <mxGeometry width="50" height="50" relative="1" as="geometry">
            <mxPoint x="280" y="1040" as="sourcePoint" />
            <mxPoint x="280" y="880" as="targetPoint" />
          </mxGeometry>
        </mxCell>
        <mxCell id="C4me2KuEJBU7en0Y0sO0-357" value="" style="endArrow=none;html=1;rounded=0;" edge="1" parent="1">
          <mxGeometry width="50" height="50" relative="1" as="geometry">
            <mxPoint x="280" y="1040" as="sourcePoint" />
            <mxPoint x="440" y="1040" as="targetPoint" />
          </mxGeometry>
        </mxCell>
        <mxCell id="C4me2KuEJBU7en0Y0sO0-358" value="" style="endArrow=none;html=1;rounded=0;" edge="1" parent="1">
          <mxGeometry width="50" height="50" relative="1" as="geometry">
            <mxPoint x="440" y="1040" as="sourcePoint" />
            <mxPoint x="440" y="1000" as="targetPoint" />
          </mxGeometry>
        </mxCell>
        <mxCell id="C4me2KuEJBU7en0Y0sO0-359" value="" style="endArrow=none;html=1;rounded=0;" edge="1" parent="1">
          <mxGeometry width="50" height="50" relative="1" as="geometry">
            <mxPoint x="440" y="1000" as="sourcePoint" />
            <mxPoint x="520" y="1000" as="targetPoint" />
          </mxGeometry>
        </mxCell>
        <mxCell id="C4me2KuEJBU7en0Y0sO0-360" value="" style="endArrow=none;html=1;rounded=0;" edge="1" parent="1">
          <mxGeometry width="50" height="50" relative="1" as="geometry">
            <mxPoint x="520" y="1000" as="sourcePoint" />
            <mxPoint x="520" y="880" as="targetPoint" />
          </mxGeometry>
        </mxCell>
        <mxCell id="C4me2KuEJBU7en0Y0sO0-361" value="" style="endArrow=none;html=1;rounded=0;" edge="1" parent="1">
          <mxGeometry width="50" height="50" relative="1" as="geometry">
            <mxPoint x="520" y="880" as="sourcePoint" />
            <mxPoint x="600" y="880" as="targetPoint" />
          </mxGeometry>
        </mxCell>
        <mxCell id="C4me2KuEJBU7en0Y0sO0-362" value="" style="endArrow=none;html=1;rounded=0;" edge="1" parent="1">
          <mxGeometry width="50" height="50" relative="1" as="geometry">
            <mxPoint x="600" y="880" as="sourcePoint" />
            <mxPoint x="600" y="920" as="targetPoint" />
          </mxGeometry>
        </mxCell>
        <mxCell id="C4me2KuEJBU7en0Y0sO0-363" value="" style="endArrow=none;html=1;rounded=0;" edge="1" parent="1">
          <mxGeometry width="50" height="50" relative="1" as="geometry">
            <mxPoint x="600" y="920" as="sourcePoint" />
            <mxPoint x="680" y="920" as="targetPoint" />
          </mxGeometry>
        </mxCell>
        <mxCell id="C4me2KuEJBU7en0Y0sO0-364" value="" style="endArrow=none;html=1;rounded=0;" edge="1" parent="1">
          <mxGeometry width="50" height="50" relative="1" as="geometry">
            <mxPoint x="680" y="1040" as="sourcePoint" />
            <mxPoint x="680" y="920" as="targetPoint" />
          </mxGeometry>
        </mxCell>
        <mxCell id="C4me2KuEJBU7en0Y0sO0-365" value="" style="endArrow=none;html=1;rounded=0;" edge="1" parent="1">
          <mxGeometry width="50" height="50" relative="1" as="geometry">
            <mxPoint x="840" y="1040" as="sourcePoint" />
            <mxPoint x="680" y="1040" as="targetPoint" />
          </mxGeometry>
        </mxCell>
        <mxCell id="C4me2KuEJBU7en0Y0sO0-366" value="" style="endArrow=none;html=1;rounded=0;" edge="1" parent="1">
          <mxGeometry width="50" height="50" relative="1" as="geometry">
            <mxPoint x="840" y="880" as="sourcePoint" />
            <mxPoint x="840" y="1040" as="targetPoint" />
          </mxGeometry>
        </mxCell>
        <mxCell id="C4me2KuEJBU7en0Y0sO0-367" value="" style="endArrow=none;html=1;rounded=0;" edge="1" parent="1">
          <mxGeometry width="50" height="50" relative="1" as="geometry">
            <mxPoint x="840" y="880" as="sourcePoint" />
            <mxPoint x="920" y="880" as="targetPoint" />
          </mxGeometry>
        </mxCell>
        <mxCell id="C4me2KuEJBU7en0Y0sO0-368" value="" style="endArrow=none;html=1;rounded=0;" edge="1" parent="1">
          <mxGeometry width="50" height="50" relative="1" as="geometry">
            <mxPoint x="920" y="1000" as="sourcePoint" />
            <mxPoint x="920" y="880" as="targetPoint" />
          </mxGeometry>
        </mxCell>
        <mxCell id="C4me2KuEJBU7en0Y0sO0-369" value="" style="endArrow=none;html=1;rounded=0;" edge="1" parent="1">
          <mxGeometry width="50" height="50" relative="1" as="geometry">
            <mxPoint x="920" y="1000" as="sourcePoint" />
            <mxPoint x="1000" y="1000" as="targetPoint" />
          </mxGeometry>
        </mxCell>
        <mxCell id="C4me2KuEJBU7en0Y0sO0-370" value="" style="endArrow=none;html=1;rounded=0;" edge="1" parent="1">
          <mxGeometry width="50" height="50" relative="1" as="geometry">
            <mxPoint x="1000" y="1040" as="sourcePoint" />
            <mxPoint x="1000" y="1000" as="targetPoint" />
          </mxGeometry>
        </mxCell>
        <mxCell id="C4me2KuEJBU7en0Y0sO0-371" value="" style="endArrow=none;html=1;rounded=0;" edge="1" parent="1">
          <mxGeometry width="50" height="50" relative="1" as="geometry">
            <mxPoint x="1000" y="1040" as="sourcePoint" />
            <mxPoint x="1160" y="1040" as="targetPoint" />
          </mxGeometry>
        </mxCell>
        <mxCell id="C4me2KuEJBU7en0Y0sO0-372" value="" style="endArrow=none;html=1;rounded=0;" edge="1" parent="1">
          <mxGeometry width="50" height="50" relative="1" as="geometry">
            <mxPoint x="1160" y="1040" as="sourcePoint" />
            <mxPoint x="1160" y="880" as="targetPoint" />
          </mxGeometry>
        </mxCell>
        <mxCell id="C4me2KuEJBU7en0Y0sO0-373" value="" style="endArrow=none;html=1;rounded=0;" edge="1" parent="1">
          <mxGeometry width="50" height="50" relative="1" as="geometry">
            <mxPoint x="1240" y="880" as="sourcePoint" />
            <mxPoint x="1160" y="880" as="targetPoint" />
          </mxGeometry>
        </mxCell>
        <mxCell id="C4me2KuEJBU7en0Y0sO0-374" value="" style="endArrow=none;html=1;rounded=0;" edge="1" parent="1">
          <mxGeometry width="50" height="50" relative="1" as="geometry">
            <mxPoint x="1240" y="1040" as="sourcePoint" />
            <mxPoint x="1240" y="880" as="targetPoint" />
          </mxGeometry>
        </mxCell>
        <mxCell id="C4me2KuEJBU7en0Y0sO0-375" value="" style="endArrow=none;html=1;rounded=0;" edge="1" parent="1">
          <mxGeometry width="50" height="50" relative="1" as="geometry">
            <mxPoint x="1240" y="1040" as="sourcePoint" />
            <mxPoint x="1320" y="1040" as="targetPoint" />
          </mxGeometry>
        </mxCell>
        <mxCell id="C4me2KuEJBU7en0Y0sO0-376" value="" style="endArrow=none;html=1;rounded=0;" edge="1" parent="1">
          <mxGeometry width="50" height="50" relative="1" as="geometry">
            <mxPoint x="1320" y="1000" as="sourcePoint" />
            <mxPoint x="1320" y="1040" as="targetPoint" />
          </mxGeometry>
        </mxCell>
        <mxCell id="C4me2KuEJBU7en0Y0sO0-377" value="" style="endArrow=none;html=1;rounded=0;" edge="1" parent="1">
          <mxGeometry width="50" height="50" relative="1" as="geometry">
            <mxPoint x="1320" y="1000" as="sourcePoint" />
            <mxPoint x="1400" y="1000" as="targetPoint" />
          </mxGeometry>
        </mxCell>
        <mxCell id="C4me2KuEJBU7en0Y0sO0-378" value="" style="endArrow=none;html=1;rounded=0;" edge="1" parent="1">
          <mxGeometry width="50" height="50" relative="1" as="geometry">
            <mxPoint x="1400" y="1040" as="sourcePoint" />
            <mxPoint x="1400" y="1000" as="targetPoint" />
          </mxGeometry>
        </mxCell>
        <mxCell id="C4me2KuEJBU7en0Y0sO0-379" value="" style="endArrow=none;html=1;rounded=0;" edge="1" parent="1">
          <mxGeometry width="50" height="50" relative="1" as="geometry">
            <mxPoint x="1400" y="1040" as="sourcePoint" />
            <mxPoint x="1480" y="1040" as="targetPoint" />
          </mxGeometry>
        </mxCell>
        <mxCell id="C4me2KuEJBU7en0Y0sO0-380" value="&lt;font style=&quot;font-size: 18px;&quot;&gt;PAM-5&lt;/font&gt;" style="text;html=1;align=center;verticalAlign=middle;whiteSpace=wrap;rounded=0;" vertex="1" parent="1">
          <mxGeometry x="130" y="870" width="60" height="30" as="geometry" />
        </mxCell>
        <mxCell id="C4me2KuEJBU7en0Y0sO0-381" value="" style="endArrow=none;dashed=1;html=1;rounded=0;opacity=40;" edge="1" parent="1">
          <mxGeometry width="50" height="50" relative="1" as="geometry">
            <mxPoint x="200" y="120" as="sourcePoint" />
            <mxPoint x="200" y="1162.5" as="targetPoint" />
          </mxGeometry>
        </mxCell>
        <mxCell id="C4me2KuEJBU7en0Y0sO0-382" value="" style="endArrow=none;dashed=1;html=1;rounded=0;opacity=40;" edge="1" parent="1">
          <mxGeometry width="50" height="50" relative="1" as="geometry">
            <mxPoint x="1120" y="120" as="sourcePoint" />
            <mxPoint x="1120" y="1162.5" as="targetPoint" />
          </mxGeometry>
        </mxCell>
        <mxCell id="C4me2KuEJBU7en0Y0sO0-383" value="" style="endArrow=none;dashed=1;html=1;rounded=0;opacity=40;" edge="1" parent="1">
          <mxGeometry width="50" height="50" relative="1" as="geometry">
            <mxPoint x="1080" y="120" as="sourcePoint" />
            <mxPoint x="1080" y="1162.5" as="targetPoint" />
          </mxGeometry>
        </mxCell>
        <mxCell id="C4me2KuEJBU7en0Y0sO0-384" value="" style="endArrow=none;dashed=1;html=1;rounded=0;opacity=40;" edge="1" parent="1">
          <mxGeometry width="50" height="50" relative="1" as="geometry">
            <mxPoint x="240" y="120" as="sourcePoint" />
            <mxPoint x="240" y="1162.5" as="targetPoint" />
          </mxGeometry>
        </mxCell>
        <mxCell id="C4me2KuEJBU7en0Y0sO0-385" value="" style="endArrow=none;dashed=1;html=1;rounded=0;opacity=40;" edge="1" parent="1">
          <mxGeometry width="50" height="50" relative="1" as="geometry">
            <mxPoint x="1040" y="120" as="sourcePoint" />
            <mxPoint x="1040" y="1162.5" as="targetPoint" />
          </mxGeometry>
        </mxCell>
        <mxCell id="C4me2KuEJBU7en0Y0sO0-386" value="" style="endArrow=none;dashed=1;html=1;rounded=0;opacity=40;" edge="1" parent="1">
          <mxGeometry width="50" height="50" relative="1" as="geometry">
            <mxPoint x="1000" y="120" as="sourcePoint" />
            <mxPoint x="1000" y="1162.5" as="targetPoint" />
          </mxGeometry>
        </mxCell>
        <mxCell id="C4me2KuEJBU7en0Y0sO0-387" value="" style="endArrow=none;dashed=1;html=1;rounded=0;opacity=40;" edge="1" parent="1">
          <mxGeometry width="50" height="50" relative="1" as="geometry">
            <mxPoint x="960" y="120" as="sourcePoint" />
            <mxPoint x="960" y="1162.5" as="targetPoint" />
          </mxGeometry>
        </mxCell>
        <mxCell id="C4me2KuEJBU7en0Y0sO0-388" value="" style="endArrow=none;dashed=1;html=1;rounded=0;opacity=40;" edge="1" parent="1">
          <mxGeometry width="50" height="50" relative="1" as="geometry">
            <mxPoint x="280" y="120" as="sourcePoint" />
            <mxPoint x="280" y="1162.5" as="targetPoint" />
          </mxGeometry>
        </mxCell>
        <mxCell id="C4me2KuEJBU7en0Y0sO0-389" value="" style="endArrow=none;dashed=1;html=1;rounded=0;opacity=40;" edge="1" parent="1">
          <mxGeometry width="50" height="50" relative="1" as="geometry">
            <mxPoint x="320" y="120" as="sourcePoint" />
            <mxPoint x="320" y="1162.5" as="targetPoint" />
          </mxGeometry>
        </mxCell>
        <mxCell id="C4me2KuEJBU7en0Y0sO0-390" value="" style="endArrow=none;dashed=1;html=1;rounded=0;opacity=40;" edge="1" parent="1">
          <mxGeometry width="50" height="50" relative="1" as="geometry">
            <mxPoint x="920" y="120" as="sourcePoint" />
            <mxPoint x="920" y="1162.5" as="targetPoint" />
          </mxGeometry>
        </mxCell>
        <mxCell id="C4me2KuEJBU7en0Y0sO0-391" value="" style="endArrow=none;dashed=1;html=1;rounded=0;opacity=40;" edge="1" parent="1">
          <mxGeometry width="50" height="50" relative="1" as="geometry">
            <mxPoint x="880" y="120" as="sourcePoint" />
            <mxPoint x="880" y="1162.5" as="targetPoint" />
          </mxGeometry>
        </mxCell>
        <mxCell id="C4me2KuEJBU7en0Y0sO0-392" value="" style="endArrow=none;dashed=1;html=1;rounded=0;opacity=40;" edge="1" parent="1">
          <mxGeometry width="50" height="50" relative="1" as="geometry">
            <mxPoint x="840" y="120" as="sourcePoint" />
            <mxPoint x="840" y="1162.5" as="targetPoint" />
          </mxGeometry>
        </mxCell>
        <mxCell id="C4me2KuEJBU7en0Y0sO0-393" value="" style="endArrow=none;dashed=1;html=1;rounded=0;opacity=40;" edge="1" parent="1">
          <mxGeometry width="50" height="50" relative="1" as="geometry">
            <mxPoint x="360" y="120" as="sourcePoint" />
            <mxPoint x="360" y="1162.5" as="targetPoint" />
          </mxGeometry>
        </mxCell>
        <mxCell id="C4me2KuEJBU7en0Y0sO0-394" value="" style="endArrow=none;dashed=1;html=1;rounded=0;opacity=40;" edge="1" parent="1">
          <mxGeometry width="50" height="50" relative="1" as="geometry">
            <mxPoint x="800" y="120" as="sourcePoint" />
            <mxPoint x="800" y="1162.5" as="targetPoint" />
          </mxGeometry>
        </mxCell>
        <mxCell id="C4me2KuEJBU7en0Y0sO0-395" value="" style="endArrow=none;dashed=1;html=1;rounded=0;opacity=40;" edge="1" parent="1">
          <mxGeometry width="50" height="50" relative="1" as="geometry">
            <mxPoint x="760" y="120" as="sourcePoint" />
            <mxPoint x="760" y="1162.5" as="targetPoint" />
          </mxGeometry>
        </mxCell>
        <mxCell id="C4me2KuEJBU7en0Y0sO0-396" value="" style="endArrow=none;dashed=1;html=1;rounded=0;opacity=40;" edge="1" parent="1">
          <mxGeometry width="50" height="50" relative="1" as="geometry">
            <mxPoint x="720" y="120" as="sourcePoint" />
            <mxPoint x="720" y="1162.5" as="targetPoint" />
          </mxGeometry>
        </mxCell>
        <mxCell id="C4me2KuEJBU7en0Y0sO0-397" value="" style="endArrow=none;dashed=1;html=1;rounded=0;opacity=40;" edge="1" parent="1">
          <mxGeometry width="50" height="50" relative="1" as="geometry">
            <mxPoint x="680" y="120" as="sourcePoint" />
            <mxPoint x="680" y="1162.5" as="targetPoint" />
          </mxGeometry>
        </mxCell>
        <mxCell id="C4me2KuEJBU7en0Y0sO0-398" value="" style="endArrow=none;dashed=1;html=1;rounded=0;opacity=40;" edge="1" parent="1">
          <mxGeometry width="50" height="50" relative="1" as="geometry">
            <mxPoint x="400" y="120" as="sourcePoint" />
            <mxPoint x="400" y="1162.5" as="targetPoint" />
          </mxGeometry>
        </mxCell>
        <mxCell id="C4me2KuEJBU7en0Y0sO0-399" value="" style="endArrow=none;dashed=1;html=1;rounded=0;opacity=40;" edge="1" parent="1">
          <mxGeometry width="50" height="50" relative="1" as="geometry">
            <mxPoint x="640" y="120" as="sourcePoint" />
            <mxPoint x="640" y="1162.5" as="targetPoint" />
          </mxGeometry>
        </mxCell>
        <mxCell id="C4me2KuEJBU7en0Y0sO0-400" value="" style="endArrow=none;dashed=1;html=1;rounded=0;opacity=40;" edge="1" parent="1">
          <mxGeometry width="50" height="50" relative="1" as="geometry">
            <mxPoint x="440" y="120" as="sourcePoint" />
            <mxPoint x="440" y="1162.5" as="targetPoint" />
          </mxGeometry>
        </mxCell>
        <mxCell id="C4me2KuEJBU7en0Y0sO0-401" value="" style="endArrow=none;dashed=1;html=1;rounded=0;opacity=40;" edge="1" parent="1">
          <mxGeometry width="50" height="50" relative="1" as="geometry">
            <mxPoint x="600" y="120" as="sourcePoint" />
            <mxPoint x="600" y="1162.5" as="targetPoint" />
          </mxGeometry>
        </mxCell>
        <mxCell id="C4me2KuEJBU7en0Y0sO0-402" value="" style="endArrow=none;dashed=1;html=1;rounded=0;opacity=40;" edge="1" parent="1">
          <mxGeometry width="50" height="50" relative="1" as="geometry">
            <mxPoint x="480" y="120" as="sourcePoint" />
            <mxPoint x="480" y="1162.5" as="targetPoint" />
          </mxGeometry>
        </mxCell>
        <mxCell id="C4me2KuEJBU7en0Y0sO0-403" value="" style="endArrow=none;dashed=1;html=1;rounded=0;opacity=40;" edge="1" parent="1">
          <mxGeometry width="50" height="50" relative="1" as="geometry">
            <mxPoint x="520" y="120" as="sourcePoint" />
            <mxPoint x="520" y="1162.5" as="targetPoint" />
          </mxGeometry>
        </mxCell>
        <mxCell id="C4me2KuEJBU7en0Y0sO0-404" value="" style="endArrow=none;dashed=1;html=1;rounded=0;opacity=40;" edge="1" parent="1">
          <mxGeometry width="50" height="50" relative="1" as="geometry">
            <mxPoint x="560" y="120" as="sourcePoint" />
            <mxPoint x="560" y="1162.5" as="targetPoint" />
          </mxGeometry>
        </mxCell>
        <mxCell id="C4me2KuEJBU7en0Y0sO0-406" value="" style="endArrow=none;dashed=1;html=1;rounded=0;opacity=40;" edge="1" parent="1">
          <mxGeometry width="50" height="50" relative="1" as="geometry">
            <mxPoint x="1480" y="120" as="sourcePoint" />
            <mxPoint x="1480" y="1162.5" as="targetPoint" />
          </mxGeometry>
        </mxCell>
        <mxCell id="C4me2KuEJBU7en0Y0sO0-407" value="" style="endArrow=none;dashed=1;html=1;rounded=0;opacity=40;" edge="1" parent="1">
          <mxGeometry width="50" height="50" relative="1" as="geometry">
            <mxPoint x="1440" y="120" as="sourcePoint" />
            <mxPoint x="1440" y="1162.5" as="targetPoint" />
          </mxGeometry>
        </mxCell>
        <mxCell id="C4me2KuEJBU7en0Y0sO0-408" value="" style="endArrow=none;dashed=1;html=1;rounded=0;opacity=40;" edge="1" parent="1">
          <mxGeometry width="50" height="50" relative="1" as="geometry">
            <mxPoint x="1400" y="120" as="sourcePoint" />
            <mxPoint x="1400" y="1162.5" as="targetPoint" />
          </mxGeometry>
        </mxCell>
        <mxCell id="C4me2KuEJBU7en0Y0sO0-409" value="" style="endArrow=none;dashed=1;html=1;rounded=0;opacity=40;" edge="1" parent="1">
          <mxGeometry width="50" height="50" relative="1" as="geometry">
            <mxPoint x="1360" y="120" as="sourcePoint" />
            <mxPoint x="1360" y="1162.5" as="targetPoint" />
          </mxGeometry>
        </mxCell>
        <mxCell id="C4me2KuEJBU7en0Y0sO0-410" value="" style="endArrow=none;dashed=1;html=1;rounded=0;opacity=40;" edge="1" parent="1">
          <mxGeometry width="50" height="50" relative="1" as="geometry">
            <mxPoint x="1320" y="120" as="sourcePoint" />
            <mxPoint x="1320" y="1162.5" as="targetPoint" />
          </mxGeometry>
        </mxCell>
        <mxCell id="C4me2KuEJBU7en0Y0sO0-411" value="" style="endArrow=none;dashed=1;html=1;rounded=0;opacity=40;" edge="1" parent="1">
          <mxGeometry width="50" height="50" relative="1" as="geometry">
            <mxPoint x="1240" y="120" as="sourcePoint" />
            <mxPoint x="1240" y="1162.5" as="targetPoint" />
          </mxGeometry>
        </mxCell>
        <mxCell id="C4me2KuEJBU7en0Y0sO0-412" value="" style="endArrow=none;dashed=1;html=1;rounded=0;opacity=40;" edge="1" parent="1">
          <mxGeometry width="50" height="50" relative="1" as="geometry">
            <mxPoint x="1160" y="120" as="sourcePoint" />
            <mxPoint x="1160" y="1162.5" as="targetPoint" />
          </mxGeometry>
        </mxCell>
        <mxCell id="C4me2KuEJBU7en0Y0sO0-413" value="" style="endArrow=none;dashed=1;html=1;rounded=0;opacity=40;" edge="1" parent="1">
          <mxGeometry width="50" height="50" relative="1" as="geometry">
            <mxPoint x="1280" y="120" as="sourcePoint" />
            <mxPoint x="1280" y="1162.5" as="targetPoint" />
          </mxGeometry>
        </mxCell>
        <mxCell id="C4me2KuEJBU7en0Y0sO0-414" value="" style="endArrow=none;dashed=1;html=1;rounded=0;opacity=40;" edge="1" parent="1">
          <mxGeometry width="50" height="50" relative="1" as="geometry">
            <mxPoint x="1200" y="120" as="sourcePoint" />
            <mxPoint x="1200" y="1162.5" as="targetPoint" />
          </mxGeometry>
        </mxCell>
      </root>
    </mxGraphModel>
  </diagram>
</mxfile>
